<?xml version="1.0" encoding="UTF-8" standalone="no"?>
<svg
   xmlns:dc="http://purl.org/dc/elements/1.1/"
   xmlns:cc="http://creativecommons.org/ns#"
   xmlns:rdf="http://www.w3.org/1999/02/22-rdf-syntax-ns#"
   xmlns:svg="http://www.w3.org/2000/svg"
   xmlns="http://www.w3.org/2000/svg"
   xmlns:sodipodi="http://sodipodi.sourceforge.net/DTD/sodipodi-0.dtd"
   xmlns:inkscape="http://www.inkscape.org/namespaces/inkscape"
   id="svg2"
   sodipodi:docname="cave2.svg"
   viewBox="0 0 70.994087 70.994087"
   sodipodi:version="0.32"
   version="1.0"
   inkscape:output_extension="org.inkscape.output.svg.inkscape"
   inkscape:version="1.0.1 (3bc2e813f5, 2020-09-07)"
   width="70.994087"
   height="70.994087">
  <defs
     id="defs4">
    <linearGradient
       id="linearGradient2338">
      <stop
         id="stop2340"
         style="stop-color:#b1b1b1"
         offset="0" />
      <stop
         id="stop2342"
         style="stop-color:#e4e4e4"
         offset="1" />
    </linearGradient>
  </defs>
  <sodipodi:namedview
     id="base"
     bordercolor="#666666"
     inkscape:pageshadow="2"
     guidetolerance="10"
     pagecolor="#ffffff"
     gridtolerance="10000"
     inkscape:window-height="975"
     width="744.09px"
     inkscape:zoom="7.9999999"
     objecttolerance="10"
     showgrid="false"
     borderopacity="1.0"
     inkscape:current-layer="g2027"
     inkscape:cx="48.323382"
     inkscape:cy="33.633696"
     inkscape:window-y="12"
     inkscape:window-x="426"
     inkscape:window-width="1418"
     inkscape:pageopacity="0.0"
     inkscape:document-units="px"
     inkscape:document-rotation="0"
     inkscape:window-maximized="0" />
  <g
     id="layer2"
     inkscape:label="colors"
     inkscape:groupmode="layer"
     transform="translate(-147.64361,-182.99898)">
    <g
       id="g2027"
       transform="translate(-82.37794,-4.2426407)">
      <g
         id="g848">
        <path
           id="path2421"
           sodipodi:nodetypes="cccccccccccccccccccccccccc"
           style="fill:#808080;fill-opacity:1;fill-rule:evenodd;stroke-width:0.514711"
           d="m 284.91895,222.54837 -1.84715,-2.74671 -2.12372,-1.37362 -5.90988,-1.97405 -3.04733,-2.31795 -3.32439,-1.37313 -1.93954,-1.11603 -4.06325,-3.09011 -2.58549,-0.77267 -5.0787,1.80288 -2.67839,1.20188 -1.93392,1.78606 0.77855,0.13446 -4.61689,1.03021 -4.05049,3.93638 -1.8472,1.37309 -1.38801,2.74723 -1.50974,2.83256 -1.01972,0.60047 -1.29196,1.71699 c 1.10858,10.16896 1.54712,10.97246 3.85895,12.85503 -8.1e-4,2.5914 1.9561,3.10748 3.60145,3.9511 3.61853,1.33987 2.76043,7.72951 12.10363,1.27338 11.39003,2.60034 29.38949,0.75627 33.69938,-10.71791 0.14775,-4.22204 2.09272,-8.83016 -3.78619,-11.75951 z" />
        <path
           id="path2308"
           sodipodi:nodetypes="csccccccsccccccccccccccssssssssccccccsssssscccccscccsccccscccssscccccccccccscccccsssscsccccccccccccccccsssscccccccccccccccccccccccccccccccccc"
           style="fill:#3c3939;fill-opacity:1;fill-rule:evenodd;stroke:#000000;stroke-width:0.111304;stroke-miterlimit:4;stroke-dasharray:none;stroke-opacity:1"
           d="m 259.68473,207.32357 c 2.12317,0.0759 3.51177,1.458 4.98843,2.63655 1.47669,1.17808 3.05852,2.1562 4.88807,2.63606 1.86001,0.58013 3.31905,1.73092 4.67136,3.00873 1.93898,0.75529 4.23676,1.95721 6.44001,2.5899 1.09869,0.35979 1.96037,1.06197 2.7857,1.79839 0.80188,0.81781 1.4014,1.81676 1.4014,2.83802 l -0.0668,0.0622 c 0,-0.83766 -0.99084,-1.79939 -1.73504,-2.55866 -0.73462,-0.74932 -1.67209,-1.6644 -2.48568,-1.95421 -1.82048,-0.40047 -3.48935,-0.89272 -5.13847,-1.69019 1.07522,1.21432 1.36936,2.41473 2.36875,3.69104 1.70892,2.10459 3.41674,4.18089 4.75515,6.51323 0.45595,0.7265 1.65926,2.36906 2.91972,3.87665 0.92467,1.14287 1.77463,2.61024 3.03611,3.42758 l -0.0501,0.0928 c -1.41104,-0.74338 -2.41304,-2.04054 -3.40348,-3.21018 -1.27378,-1.52446 -2.41732,-3.25832 -2.90263,-4.03199 -1.06556,-2.3676 -2.98055,-4.41905 -4.58804,-6.54398 -2.3554,-3.00723 -4.32591,-6.07352 -8.1249,-7.35085 -1.94166,-0.52404 -3.46105,-1.88428 -4.95482,-3.08616 -1.72117,-1.40039 -3.72476,-2.47676 -5.88907,-1.22473 -1.14036,0.26707 -2.09275,0.22082 -2.63622,1.256 -0.8355,0.85404 -1.56475,1.78002 -2.21875,2.74472 -0.0613,0.0907 1.6459,1.91252 2.53585,4.41957 0.94281,2.65538 1.0811,5.99808 1.01757,6.09484 -0.0373,0.057 -0.19387,-1.8316 -0.51678,-3.38087 -0.0421,-0.2 -0.93534,1.30462 -0.98446,1.10115 -0.0365,-0.14824 0.8243,-1.48081 0.78371,-1.6282 -0.17718,-0.64558 -0.37691,-1.29916 -0.63368,-1.89215 -1.01595,-2.34625 -2.53,-4.295 -2.58607,-4.2022 -1.09866,1.81276 -0.20571,5.70785 -1.12403,7.6065 h -0.0182 v 0.0153 c -3.45198,5.43238 -7.22721,9.59633 -7.18343,15.88719 -0.15049,2.1815 -1.10082,5.19967 -2.18565,7.12013 l -0.31711,-0.23339 c 0.80986,-0.91309 1.69022,-3.1412 1.7185,-4.68457 0.002,-0.14089 -0.91984,0.14151 -2.5695,0.49628 -0.17779,0.0383 0.24393,2.11898 0.0667,2.15372 -0.44363,0.0992 -0.42121,-2.11106 -0.81736,-2.02965 -1.01274,0.20827 -1.76228,0.34239 -1.7516,0.24809 0.0409,-0.36669 3.19465,-0.66693 5.08828,-1.55074 0.53447,-0.24962 0.21936,-1.4282 0.23392,-1.52002 -0.18629,-6.30278 4.33686,-10.55006 7.46746,-15.99537 1.50977,-3.44841 0.99217,-8.14541 3.54299,-11.01868 -0.86647,0.28791 -1.70836,0.62877 -2.56896,0.93046 -2.48995,0.12466 0.8477,1.15478 -1.46234,1.96566 -0.10649,0.0122 -0.46887,2.7359 -1.9781,4.15519 -2.40239,2.25935 -4.21874,6.78747 -4.38425,6.81228 0.36165,-4.00631 5.0331,-5.62801 5.51138,-10.81215 -4.01629,0.75082 -5.57044,3.83812 -9.05661,5.80969 0.12288,0.69278 0.46985,1.81972 0.81684,3.02411 0.36302,1.24409 0.73137,2.55716 0.81681,3.59778 -0.25091,2.33333 0.48046,4.58135 1.12112,6.80748 l -0.11742,0.0313 c -0.59794,-2.21823 -1.82582,-4.38631 -1.53753,-6.7921 -0.0801,-0.96669 -0.43777,-2.26735 -0.80079,-3.50497 -0.31498,-1.08679 -0.72606,-1.70165 -0.88088,-2.44996 -0.69403,0.62129 -0.95027,1.06044 -1.30264,1.87629 -0.34169,0.82478 0.19327,1.69221 -0.58079,2.46585 -0.54989,0.36028 -1.08377,0.74782 -1.60161,1.16271 -0.17628,0.14242 0.48583,2.34772 0.31499,2.4966 -0.1332,0.12006 -0.63532,-2.38845 -0.76344,-2.26389 -0.43241,0.41388 -1.30795,1.42425 -1.65498,1.89169 l -0.11741,-0.0775 c 0.91826,-1.38203 2.01268,-2.54374 3.43811,-3.53572 0.66731,-0.65405 0.13227,-1.48676 0.47936,-2.31054 0.347,-0.82574 0.69936,-1.69068 1.46814,-2.43455 3.88119,-2.87722 5.85388,-5.17749 10.60958,-6.16651 2.42484,-1.01582 -0.63896,-1.93884 1.96256,-2.3691 1.42918,-0.4868 2.71686,-1.19 3.97093,-1.98496 z m 2.853,6.14103 c 0.76234,0.69722 1.14993,1.79593 2.05163,2.14031 0.11377,0.24472 1.4233,1.67236 1.75213,1.38008 0.49438,-0.4397 0.0737,-2.72142 0.40042,-2.48123 -0.21511,0.80341 0.3534,3.05536 0.68388,3.52035 0.38544,-0.26156 0.68013,-0.36224 1.31812,-0.35678 0.68067,0.67189 1.54499,1.24801 2.51877,1.64403 1.16116,0.49376 1.65392,1.49172 2.06926,2.55865 1.19105,3.21665 4.06538,5.53163 5.77215,8.63761 0.0324,0.0594 0.55682,0.0585 1.18464,0.0468 0.12319,-0.002 0.28824,-1.19102 0.41696,-1.19399 0.17446,-0.003 -0.10618,1.18207 0.0667,1.17809 0.73246,-0.0184 1.80128,-0.0215 1.83492,0.0468 0.009,0.16447 -3.32651,0.28423 -3.31956,0.44962 0.0385,0.95922 0.13774,2.37253 0.13319,3.33425 -0.0307,0.61085 -0.12076,1.1999 -0.33365,1.69072 0.61287,-0.29526 1.32294,-0.5171 1.76817,-0.65159 0.45698,-0.71061 1.1243,-1.25601 1.88507,-1.4267 1.78683,-0.10535 2.74566,1.09919 2.78622,2.52788 -0.48046,1.18105 -2.13331,1.25499 -3.303,1.64354 -0.89903,0.32754 -1.94541,0.21593 -2.91971,0.18592 -0.63905,-0.10721 -0.96469,-0.51958 -1.35122,-0.96124 -0.0242,-0.0934 0.0346,-0.40589 0.0503,-0.49624 -1.18091,-0.29465 -10.4901,1.633 -11.69823,1.85292 -1.06347,0.30765 -2.11092,0.85851 -3.21978,1.38056 l -5.12135,0.69772 -0.66732,1.05698 0.76713,1.42424 -0.93425,-1.27039 -2.3191,3.1462 c -0.0242,-0.0499 0.51944,-1.02229 0.96789,-1.84607 0.0673,-0.12404 -1.18841,0.0992 -1.11793,-0.0306 0.0583,-0.10414 1.2295,-0.2729 1.30158,-0.37216 0.64812,-0.90816 1.33146,-2.2088 1.30103,-2.46585 -0.37852,-3.17398 -0.78213,-5.98572 -0.60061,-8.96316 -0.47566,-3.23008 0.34648,-6.34501 1.33468,-9.41326 0.1068,-0.6744 0.17203,-0.51266 0.50076,-1.13196 0.0273,-0.4511 7.57202,-3.26678 7.1593,-3.55959 -0.22633,-0.15222 -0.22997,-0.5295 -0.45002,-0.71309 -2.90692,0.47242 -5.98892,-0.30766 -8.52533,-1.72149 l 0.31711,-0.0928 c 2.18089,1.48725 5.33334,1.7969 7.55743,1.61279 -0.14473,-0.16662 -0.27882,-0.34787 -0.38386,-0.55829 h -0.0182 c -0.009,-0.0215 -0.0242,-0.0398 -0.0331,-0.0622 -0.323,-0.41137 -0.60115,-0.87487 -0.86808,-1.2406 z m 5.67228,4.34218 -0.36729,0.34138 c 1.14994,0.94387 2.25291,1.90958 3.57051,2.77599 0.53601,0.65554 0.76984,1.40486 1.05064,2.13982 2.05324,2.4192 3.81073,5.52519 5.70597,8.31208 -0.23271,1.7056 0.10102,3.27968 -0.76773,5.13315 l 0.63426,0.12404 1.02928,-2.18744 -0.16171,-3.36454 -5.97236,-8.94778 c -0.55151,-0.86099 -0.69724,-1.82964 -1.80233,-2.54325 z m 15.11486,16.60876 c -0.98074,0.0276 -1.53223,0.65308 -2.08529,1.33343 -1.05922,0.55729 -3.8871,1.12648 -1.852,2.09366 0.90971,0.006 2.02815,0.12006 2.61969,-0.15467 h 0.0182 0.0182 c 1.07572,-0.31165 2.69923,-0.21685 3.30354,-1.10115 0.0273,-0.92749 -1.03143,-1.91849 -2.01908,-2.17109 z" />
        <path
           style="fill:#201616;fill-opacity:1;stroke:#606060;stroke-width:0.024768;stroke-linecap:round;stroke-linejoin:round"
           d="m 256.67653,242.46348 c 0.41994,-0.56235 0.86858,-1.18649 0.99699,-1.38698 l 0.23348,-0.36453 2.515,-0.33144 c 2.50123,-0.32963 2.52076,-0.3341 3.56859,-0.81728 0.57948,-0.2672 1.27937,-0.57562 1.55531,-0.68537 0.94371,-0.37532 8.9384,-1.843 11.48921,-2.10921 0.41391,-0.0432 0.65097,-0.0954 0.5268,-0.11593 -0.28084,-0.0465 -0.28057,-0.0568 0.0254,-0.97684 0.20235,-0.60852 0.27143,-1.09927 0.35566,-2.52659 l 0.10453,-1.77138 -2.05313,-3.12283 c -1.12923,-1.71756 -2.40777,-3.57867 -2.8412,-4.1358 -0.43344,-0.55713 -0.87199,-1.24088 -0.97456,-1.51945 -0.38299,-1.04012 -0.67426,-1.45964 -1.35282,-1.94845 -1.29537,-0.93315 -3.12868,-2.46718 -3.06765,-2.56687 0.0388,-0.0634 -0.0311,-0.0781 -0.18558,-0.039 -0.22009,0.0558 -0.26651,0.0136 -0.4138,-0.3758 -0.0913,-0.24124 -0.22581,-0.66653 -0.29903,-0.94509 -0.13109,-0.49873 -0.13431,-0.50183 -0.2105,-0.2026 -0.14845,0.58307 -0.43286,0.70659 -0.90614,0.39354 -0.19624,-0.12981 -0.24666,-0.13504 -0.24413,-0.0253 0.002,0.076 0.0687,0.2257 0.14881,0.33256 0.27359,0.365 0.16138,0.43119 -3.36296,1.98376 -3.41915,1.50623 -3.61807,1.61583 -3.88869,2.14261 -0.47755,0.92957 -1.40998,4.51918 -1.63531,6.29552 -0.19034,1.50051 0.0234,7.92508 0.3571,10.73519 l 0.26202,2.2063 -0.24958,0.55035 c -0.44799,0.98784 -1.13849,1.9746 -1.39086,1.98762 -0.15992,0.008 -0.17731,0.0252 -0.0584,0.0569 0.0932,0.0248 0.18349,0.10357 0.20068,0.17501 0.0172,0.0714 0.37484,-0.33023 0.79477,-0.89258 z"
           id="path4160" />
      </g>
      <path
         id="path34"
         style="fill:#3be912;fill-opacity:1;fill-rule:evenodd;stroke:#000000;stroke-width:0.377953;stroke-miterlimit:4;stroke-dasharray:none;stroke-opacity:1"
         d="m 293.16206,210.90033 c 0.0967,-1.64961 0.0847,-3.53163 -0.034,-5.64397 -0.24075,-4.22759 -0.89937,-7.52118 -1.97835,-9.87991 0.57456,1.03245 1.16318,2.45061 1.76254,4.25582 0.90025,2.69405 1.49643,5.46853 1.78923,8.32003 0.39103,-4.53075 1.35334,-8.93972 2.89168,-13.22476 0.93502,-2.57567 1.84637,-4.6049 2.73415,-6.08504 l -0.001,-0.001 c -1.66799,3.3623 -2.69386,8.06706 -3.07726,14.11317 -0.17915,3.03897 -0.1988,5.73199 -0.0548,8.07511"
         sodipodi:nodetypes="cccccccccc" />
      <path
         id="path845"
         style="fill:none;stroke:#c28b09;stroke-width:1.24194px;stroke-linecap:butt;stroke-linejoin:miter;stroke-opacity:1"
         d="m 233.29609,204.39652 c -0.16133,-0.27549 2.24185,-7.1808 7.18543,-9.42941 m -6.02004,4.50794 c 0,0 0.70321,-6.71185 4.05471,-7.71485 m -4.63522,-2.86339 c 0.98823,-0.31405 1.37272,11.1978 -0.58488,15.49971 m -1.36628,-10.16015 c 0.29884,-0.20576 -0.75088,6.18507 1.36628,10.16015" />
    </g>
  </g>
  <g
     id="layer1"
     inkscape:label="outline"
     inkscape:groupmode="layer"
     transform="translate(-147.64361,-182.99898)" />
  <metadata
     id="metadata21">
    <rdf:RDF>
      <cc:Work>
        <dc:format>image/svg+xml</dc:format>
        <dc:type
           rdf:resource="http://purl.org/dc/dcmitype/StillImage" />
        <cc:license
           rdf:resource="http://creativecommons.org/licenses/publicdomain/" />
        <dc:publisher>
          <cc:Agent
             rdf:about="http://openclipart.org/">
            <dc:title>Openclipart</dc:title>
          </cc:Agent>
        </dc:publisher>
        <dc:title />
        <dc:date>2008-01-23T09:59:00</dc:date>
        <dc:description>Part of the fantasy RPG map elements collection (houses and various buildings): a cave entrance</dc:description>
        <dc:source>https://openclipart.org/detail/11431/rpg-map-symbols:-cave-entrance-by-nicubunu</dc:source>
        <dc:creator>
          <cc:Agent>
            <dc:title>nicubunu</dc:title>
          </cc:Agent>
        </dc:creator>
        <dc:subject>
          <rdf:Bag>
            <rdf:li>cartography</rdf:li>
            <rdf:li>cave</rdf:li>
            <rdf:li>fantasy</rdf:li>
            <rdf:li>geography</rdf:li>
            <rdf:li>map</rdf:li>
            <rdf:li>mountain</rdf:li>
          </rdf:Bag>
        </dc:subject>
      </cc:Work>
      <cc:License
         rdf:about="http://creativecommons.org/licenses/publicdomain/">
        <cc:permits
           rdf:resource="http://creativecommons.org/ns#Reproduction" />
        <cc:permits
           rdf:resource="http://creativecommons.org/ns#Distribution" />
        <cc:permits
           rdf:resource="http://creativecommons.org/ns#DerivativeWorks" />
      </cc:License>
    </rdf:RDF>
  </metadata>
</svg>
