<?xml version="1.0" encoding="UTF-8" standalone="no"?>
<svg
   xmlns:dc="http://purl.org/dc/elements/1.1/"
   xmlns:cc="http://creativecommons.org/ns#"
   xmlns:rdf="http://www.w3.org/1999/02/22-rdf-syntax-ns#"
   xmlns:svg="http://www.w3.org/2000/svg"
   xmlns="http://www.w3.org/2000/svg"
   xmlns:sodipodi="http://sodipodi.sourceforge.net/DTD/sodipodi-0.dtd"
   xmlns:inkscape="http://www.inkscape.org/namespaces/inkscape"
   width="18.520834mm"
   height="18.520834mm"
   viewBox="0 0 18.520834 18.520834"
   version="1.1"
   id="svg1139"
   inkscape:version="1.0.1 (3bc2e813f5, 2020-09-07)"
   sodipodi:docname="field1.svg">
  <defs
     id="defs1133" />
  <sodipodi:namedview
     id="base"
     pagecolor="#ffffff"
     bordercolor="#666666"
     borderopacity="1.0"
     inkscape:pageopacity="0.0"
     inkscape:pageshadow="2"
     inkscape:zoom="5.1200001"
     inkscape:cx="40.493859"
     inkscape:cy="50.660614"
     inkscape:document-units="mm"
     inkscape:current-layer="layer1"
     inkscape:document-rotation="0"
     showgrid="false"
     inkscape:window-width="909"
     inkscape:window-height="1032"
     inkscape:window-x="961"
     inkscape:window-y="40"
     inkscape:window-maximized="0" />
  <metadata
     id="metadata1136">
    <rdf:RDF>
      <cc:Work
         rdf:about="">
        <dc:format>image/svg+xml</dc:format>
        <dc:type
           rdf:resource="http://purl.org/dc/dcmitype/StillImage" />
        <dc:title />
      </cc:Work>
    </rdf:RDF>
  </metadata>
  <g
     inkscape:label="Слой 1"
     inkscape:groupmode="layer"
     id="layer1"
     transform="translate(-287.07291,-36.85268)">
    <rect
       style="fill:none;fill-opacity:1;stroke:none;stroke-width:0.12;stroke-linecap:round;stroke-linejoin:round;stroke-miterlimit:4;stroke-dasharray:none;stroke-opacity:1;paint-order:normal"
       id="rect2805-8-2"
       width="18.520834"
       height="18.520834"
       x="287.07291"
       y="36.85268" />
    <path
       id="path35855"
       d="m 302.24928,52.252462 -1.49337,0.584859 c -0.19814,1.18775 0.30064,0.49512 -0.22118,1.52013 l 1.9208,-0.0699 c -0.23488,-0.0584 -0.32439,-0.2727 -0.36341,-0.43859 -0.0782,-1.127479 0.153,-0.4627 0.15716,-1.596499 z"
       sodipodi:nodetypes="cccccc"
       style="fill:#5b3700;fill-rule:evenodd;stroke:#2f1a00;stroke-width:0.0364548px"
       inkscape:connector-curvature="0" />
    <g
       id="g36799"
       transform="matrix(0.03645473,0,0,0.03645473,298.01125,4.3097112)"
       style="fill:#00a300;fill-opacity:1;stroke:#000000;stroke-width:2.74313;stroke-miterlimit:4;stroke-dasharray:none;stroke-opacity:1">
      <g
         id="g3616"
         transform="translate(-1,-16)"
         style="fill:#00a300;fill-opacity:1;stroke:#000000;stroke-width:2.74313;stroke-miterlimit:4;stroke-dasharray:none;stroke-opacity:1" />
      <path
         id="path36649"
         style="fill:#00a300;fill-opacity:1;fill-rule:evenodd;stroke:#000000;stroke-width:2.74313;stroke-miterlimit:4;stroke-dasharray:none;stroke-opacity:1"
         d="m 19.620731,1306.101 c 5.050399,-15.505 12.331999,-10.815 6.576799,-12.493 -20.3809993,-7.5425 -24.4079995,-32.643 -18.8579993,-54.809 -0.1948861,-16.5824 29.8122513,-19.7966 28.7691293,-32.8272 -1.2669,-14.772 4.8961,-31.277 25.647,-42.44 20.7509,-11.163 59.548,-0.5936 63.666,19.921 16.939,-1.3835 47.002,10.944 53.492,33.076 6.6264,22.597 -15.525,41.762 -15.137,45.743 0.41168,4.2315 18.832,22.934 2.0074,48.888 -16.678,25.728 -38.749,15.609 -49.53,3.9712 -18.285,20.422 -91.699,26.524 -96.632999,-9.0304 z"
         sodipodi:nodetypes="ccccscscsccc" />
    </g>
    <rect
       id="rect13321"
       height="1.5557802"
       width="1.3721765"
       y="45.547867"
       x="291.30145"
       fill="#502d16"
       style="stroke-width:0.00873887" />
    <path
       id="path13323"
       d="m 291.87909,46.125512 c -1.44384,0.0263 -2.75632,-0.52503 -2.75632,-0.52503 0,0 0.99754,-0.13125 1.52258,-1.26005 0.49136,-1.05644 0.34126,-1.39132 0.34126,-1.39132 -0.66348,0.34051 -1.36667,0.35788 -2.20508,0.18376 0,0 1.62753,-0.73502 2.07382,-1.78508 0.34439,-0.81034 0.36751,-0.78753 0.36751,-0.78753 0,0 -0.49877,0.21001 -0.84003,0.21001 -0.34126,0 -0.42002,-0.0263 -0.42002,-0.0263 0,0 1.02376,-0.65627 1.52258,-1.78509 0.49877,-1.1288 0.39376,-1.33879 0.39376,-1.33879 0.24848,1.32455 0.5167,1.71675 1.89004,2.99262 0,0 -0.94502,0.21001 -1.18132,0.0525 -0.23626,-0.15751 -0.1575,-0.15751 -0.1575,-0.15751 0.46529,1.20037 0.8205,1.65156 2.44137,2.4676 0,0 -1.23008,0.30624 -2.07382,0.0262 0.32534,1.70172 2.19547,2.60776 2.19547,2.60776 -1.41753,0.36752 -1.23358,0.49053 -3.11427,0.51614 z"
       fill="#008000"
       style="stroke:#000000;stroke-width:0.1;stroke-miterlimit:4;stroke-dasharray:none;stroke-opacity:1" />
  </g>
</svg>
