<?xml version="1.0" encoding="UTF-8" standalone="no"?>
<svg
   xmlns:dc="http://purl.org/dc/elements/1.1/"
   xmlns:cc="http://creativecommons.org/ns#"
   xmlns:rdf="http://www.w3.org/1999/02/22-rdf-syntax-ns#"
   xmlns:svg="http://www.w3.org/2000/svg"
   xmlns="http://www.w3.org/2000/svg"
   xmlns:sodipodi="http://sodipodi.sourceforge.net/DTD/sodipodi-0.dtd"
   xmlns:inkscape="http://www.inkscape.org/namespaces/inkscape"
   width="18.520834mm"
   height="18.520834mm"
   viewBox="0 0 18.520834 18.520834"
   version="1.1"
   id="svg1139"
   inkscape:version="1.0.1 (3bc2e813f5, 2020-09-07)"
   sodipodi:docname="field9.svg">
  <defs
     id="defs1133" />
  <sodipodi:namedview
     id="base"
     pagecolor="#ffffff"
     bordercolor="#666666"
     borderopacity="1.0"
     inkscape:pageopacity="0.0"
     inkscape:pageshadow="2"
     inkscape:zoom="5.1200001"
     inkscape:cx="40.493859"
     inkscape:cy="50.660614"
     inkscape:document-units="mm"
     inkscape:current-layer="layer1"
     inkscape:document-rotation="0"
     showgrid="false"
     inkscape:window-width="874"
     inkscape:window-height="1032"
     inkscape:window-x="1026"
     inkscape:window-y="0"
     inkscape:window-maximized="0" />
  <metadata
     id="metadata1136">
    <rdf:RDF>
      <cc:Work
         rdf:about="">
        <dc:format>image/svg+xml</dc:format>
        <dc:type
           rdf:resource="http://purl.org/dc/dcmitype/StillImage" />
        <dc:title></dc:title>
      </cc:Work>
    </rdf:RDF>
  </metadata>
  <g
     inkscape:label="Слой 1"
     inkscape:groupmode="layer"
     id="layer1"
     transform="translate(-287.07291,-36.85268)">
    <rect
       style="fill:none;fill-opacity:1;stroke:none;stroke-width:0.12;stroke-linecap:round;stroke-linejoin:round;stroke-miterlimit:4;stroke-dasharray:none;stroke-opacity:1;paint-order:normal"
       id="rect2805-8-2"
       width="18.520834"
       height="18.520834"
       x="287.07291"
       y="36.85268" />
    <path
       id="path913"
       style="fill:#27dc00;fill-opacity:1;stroke:#000000;stroke-width:0.1;stroke-linecap:butt;stroke-linejoin:miter;stroke-miterlimit:4;stroke-dasharray:none;stroke-opacity:1"
       d="m 298.91353,54.591191 c 0.19617,-0.24002 0.34515,-0.48923 0.42547,-0.75181 -0.27503,-0.89971 0.0442,-2.75873 0.84032,-3.81221 -0.79076,0.45584 -1.27421,1.41454 -1.57365,3.48889 m -2.34551,-1.55878 c 1.10949,0.15124 1.73768,-0.97551 2.65338,2.63391 m 0,0 -0.62179,0.1771 c -0.24749,-1.04912 -0.5173,-2.52327 -2.03159,-2.81101"
       sodipodi:nodetypes="ccccccccc" />
    <path
       id="path34"
       style="fill:#3be912;fill-opacity:1;fill-rule:evenodd;stroke:#000000;stroke-width:0.1;stroke-miterlimit:4;stroke-dasharray:none;stroke-opacity:1"
       d="m 293.08618,53.118486 c -0.0256,-0.43646 -0.0224,-0.93441 0.009,-1.4933 0.0637,-1.11855 0.23796,-1.98998 0.52344,-2.61406 -0.15202,0.27317 -0.30776,0.64839 -0.46634,1.12602 -0.23819,0.7128 -0.39593,1.44688 -0.4734,2.20134 -0.10346,-1.19876 -0.35807,-2.3653 -0.76509,-3.49905 -0.24739,-0.68148 -0.48852,-1.21838 -0.72341,-1.61 l 3.1e-4,-3e-4 c 0.44132,0.88961 0.71275,2.13441 0.81419,3.73411 0.0474,0.80406 0.0526,1.51659 0.0145,2.13654"
       sodipodi:nodetypes="cccccccccc" />
  </g>
</svg>
