<?xml version="1.0" encoding="UTF-8" standalone="no"?>
<svg
   xmlns:dc="http://purl.org/dc/elements/1.1/"
   xmlns:cc="http://creativecommons.org/ns#"
   xmlns:rdf="http://www.w3.org/1999/02/22-rdf-syntax-ns#"
   xmlns:svg="http://www.w3.org/2000/svg"
   xmlns="http://www.w3.org/2000/svg"
   xmlns:sodipodi="http://sodipodi.sourceforge.net/DTD/sodipodi-0.dtd"
   xmlns:inkscape="http://www.inkscape.org/namespaces/inkscape"
   width="18.520834mm"
   height="18.520834mm"
   viewBox="0 0 18.520834 18.520834"
   version="1.1"
   id="svg1139"
   inkscape:version="1.0.1 (3bc2e813f5, 2020-09-07)"
   sodipodi:docname="field8.svg">
  <defs
     id="defs1133" />
  <sodipodi:namedview
     id="base"
     pagecolor="#ffffff"
     bordercolor="#666666"
     borderopacity="1.0"
     inkscape:pageopacity="0.0"
     inkscape:pageshadow="2"
     inkscape:zoom="1.8101934"
     inkscape:cx="-51.4063"
     inkscape:cy="39.94325"
     inkscape:document-units="mm"
     inkscape:current-layer="layer1"
     inkscape:document-rotation="0"
     showgrid="false"
     inkscape:window-width="1710"
     inkscape:window-height="1032"
     inkscape:window-x="180"
     inkscape:window-y="0"
     inkscape:window-maximized="0" />
  <metadata
     id="metadata1136">
    <rdf:RDF>
      <cc:Work
         rdf:about="">
        <dc:format>image/svg+xml</dc:format>
        <dc:type
           rdf:resource="http://purl.org/dc/dcmitype/StillImage" />
        <dc:title></dc:title>
      </cc:Work>
    </rdf:RDF>
  </metadata>
  <g
     inkscape:label="Слой 1"
     inkscape:groupmode="layer"
     id="layer1"
     transform="translate(-287.07291,-36.85268)">
    <rect
       style="fill:none;fill-opacity:1;stroke:none;stroke-width:0.12;stroke-linecap:round;stroke-linejoin:round;stroke-miterlimit:4;stroke-dasharray:none;stroke-opacity:1;paint-order:normal"
       id="rect2805-8-2"
       width="18.520834"
       height="18.520834"
       x="287.07291"
       y="36.85268" />
    <g
       id="g1801"
       transform="translate(56.352935,-202.49443)">
      <rect
         id="rect13321"
         height="1.5557802"
         width="1.3721765"
         y="253.79884"
         x="238.61967"
         fill="#502d16"
         style="stroke-width:0.00873888" />
      <path
         id="path13323"
         d="m 239.19732,254.37649 c -1.44384,0.0263 -2.75632,-0.52503 -2.75632,-0.52503 0,0 0.99754,-0.13125 1.52258,-1.26005 0.49136,-1.05644 0.34126,-1.39132 0.34126,-1.39132 -0.66348,0.34051 -1.36667,0.35788 -2.20508,0.18376 0,0 1.62753,-0.73502 2.07382,-1.78508 0.34439,-0.81034 0.36751,-0.78753 0.36751,-0.78753 0,0 -0.49877,0.21001 -0.84003,0.21001 -0.34126,0 -0.42002,-0.0263 -0.42002,-0.0263 0,0 1.02376,-0.65627 1.52258,-1.78509 0.49877,-1.1288 0.39376,-1.33879 0.39376,-1.33879 0.24848,1.32455 0.5167,1.71675 1.89004,2.99262 0,0 -0.94502,0.21001 -1.18132,0.0525 -0.23626,-0.15751 -0.1575,-0.15751 -0.1575,-0.15751 0.46529,1.20037 0.8205,1.65156 2.44137,2.4676 0,0 -1.23008,0.30624 -2.07382,0.0262 0.32534,1.70172 2.19547,2.60776 2.19547,2.60776 -1.41753,0.36752 -1.23358,0.49053 -3.11427,0.51614 z"
         fill="#008000"
         style="stroke:#000000;stroke-width:0.1;stroke-miterlimit:4;stroke-dasharray:none;stroke-opacity:1" />
    </g>
  </g>
</svg>
