<?xml version="1.0" encoding="UTF-8" standalone="no"?>
<svg
   xmlns:dc="http://purl.org/dc/elements/1.1/"
   xmlns:cc="http://creativecommons.org/ns#"
   xmlns:rdf="http://www.w3.org/1999/02/22-rdf-syntax-ns#"
   xmlns:svg="http://www.w3.org/2000/svg"
   xmlns="http://www.w3.org/2000/svg"
   xmlns:sodipodi="http://sodipodi.sourceforge.net/DTD/sodipodi-0.dtd"
   xmlns:inkscape="http://www.inkscape.org/namespaces/inkscape"
   width="18.520834mm"
   height="18.520834mm"
   viewBox="0 0 18.520834 18.520834"
   version="1.1"
   id="svg1523"
   inkscape:version="1.0.1 (3bc2e813f5, 2020-09-07)"
   sodipodi:docname="mount.svg">
  <defs
     id="defs1517" />
  <sodipodi:namedview
     id="base"
     pagecolor="#ffffff"
     bordercolor="#666666"
     borderopacity="1.0"
     inkscape:pageopacity="0.0"
     inkscape:pageshadow="2"
     inkscape:zoom="3.959798"
     inkscape:cx="82.805653"
     inkscape:cy="80.483087"
     inkscape:document-units="mm"
     inkscape:current-layer="layer1"
     inkscape:document-rotation="0"
     showgrid="false"
     inkscape:window-width="1710"
     inkscape:window-height="1032"
     inkscape:window-x="30"
     inkscape:window-y="0"
     inkscape:window-maximized="0" />
  <metadata
     id="metadata1520">
    <rdf:RDF>
      <cc:Work
         rdf:about="">
        <dc:format>image/svg+xml</dc:format>
        <dc:type
           rdf:resource="http://purl.org/dc/dcmitype/StillImage" />
        <dc:title></dc:title>
      </cc:Work>
    </rdf:RDF>
  </metadata>
  <g
     inkscape:label="Слой 1"
     inkscape:groupmode="layer"
     id="layer1"
     transform="translate(43.278275,34.206844)">
    <g
       id="g417"
       transform="translate(-208.09654,-382.06477)">
      <path
         class="st0"
         d="m 173.42118,350.37284 c 0.024,-8e-4 0.0425,0.0252 0.0625,0.043 0.67084,0.63628 1.34177,1.27225 2.0127,1.90836 0.30138,0.28443 0.60146,0.57281 0.90369,0.85481 -0.003,0.006 -0.009,0.0166 -0.0115,0.0221 -0.1461,-0.12327 -0.28591,-0.26586 -0.42966,-0.39613 -0.84057,-0.78449 -1.6803,-1.57143 -2.52087,-2.35577 -0.002,0.0204 -0.004,0.0408 -0.006,0.0612 -0.002,-0.0432 -0.006,-0.0863 -0.0109,-0.12905 z"
         id="path4-7"
         style="fill:#7a6d6b;stroke:#7a6d6b;stroke-width:0.0119459" />
      <path
         class="st1"
         d="m 173.3833,350.47298 c 0.0114,-0.0321 0.0242,-0.063 0.0388,-0.0916 0.004,0.0428 0.008,0.0858 0.0109,0.12905 0.0351,0.57753 0.0705,1.15491 0.10642,1.73228 -7.9e-4,0.041 0.0186,0.0688 0.0343,0.0962 0.91456,1.60628 1.82836,3.21362 2.7431,4.81974 -0.45807,0.10684 -0.9169,0.20667 -1.37525,0.31046 -0.007,-0.0176 -0.0136,-0.0349 -0.0205,-0.0519 -0.20536,-0.52229 -0.40594,-1.04959 -0.61008,-1.5731 -0.19336,-0.50251 -0.3883,-1.00318 -0.58148,-1.50569 -0.0148,-0.0334 -0.0255,-0.0953 -0.0583,-0.0715 -0.23011,0.0773 -0.46004,0.15645 -0.69016,0.23406 l -0.004,-0.002 c 0.0253,-0.30695 0.0639,-0.61086 0.0932,-0.9169 0.11018,-1.0292 0.21624,-2.05962 0.32745,-3.08868 -0.004,-0.005 -0.011,-0.0152 -0.0148,-0.0202 z"
         id="path6-2"
         style="fill:#5c514f;stroke:#5c514f;stroke-width:0.0119459" />
      <path
         class="st2"
         d="m 173.43806,350.44924 c 0.84057,0.78433 1.6803,1.57127 2.52087,2.35577 0.14374,0.13026 0.28356,0.27286 0.42965,0.39612 0.0868,0.86227 0.16795,1.7265 0.25357,2.58892 0.0307,0.0748 0.0743,0.13377 0.11026,0.2021 0.17996,0.31624 0.36056,0.6314 0.54023,0.94809 -0.2319,0.0554 -0.46427,0.10455 -0.69635,0.15796 -0.0917,0.0244 -0.18501,0.0341 -0.27578,0.067 l -0.004,-0.006 c -0.91474,-1.60612 -1.82854,-3.21347 -2.7431,-4.81974 -0.0158,-0.0274 -0.0352,-0.0553 -0.0343,-0.0962 -0.0359,-0.57738 -0.0713,-1.15476 -0.10643,-1.73228 8e-4,-0.0204 0.003,-0.0408 0.006,-0.0612 z"
         id="path8-3"
         style="fill:#8a7e7b;stroke:#8a7e7b;stroke-width:0.0119459" />
      <path
         class="st3"
         d="m 173.3833,350.47298 c 0.004,0.005 0.011,0.0152 0.0148,0.0202 -0.11121,1.02904 -0.21726,2.05947 -0.32745,3.08867 -0.0294,0.30604 -0.0679,0.60994 -0.0932,0.9169 -0.19223,0.0729 -0.38633,0.13254 -0.57932,0.20042 -0.24249,0.0813 -0.48461,0.16451 -0.72701,0.24654 -0.0266,0.0131 -0.0594,0.01 -0.0814,0.0379 -0.01,0.0843 -8e-4,0.17166 -0.004,0.25718 -1.7e-4,1.26296 3.4e-4,2.52576 -2.5e-4,3.78871 0.002,0.0534 -0.006,0.11064 0.008,0.16086 0.0655,-1.34513 0.12274,-2.69163 0.18651,-4.03723 0.12958,-0.0413 0.25974,-0.0785 0.38934,-0.12037 0.0117,0.13986 0.0141,0.28139 0.0219,0.422 0.0198,0.415 0.0383,0.83015 0.0579,1.245 0.0162,0.0902 0.0509,0.16877 0.0745,0.25445 0.67422,2.16341 1.35022,4.32546 2.02407,6.48917 0.13277,0.41439 0.25768,0.83532 0.3914,1.24896 -0.2078,0 -0.4155,-5.5e-4 -0.62331,1.3e-4 -0.13943,-0.59016 -0.28619,-1.17575 -0.42825,-1.76424 -0.0121,-0.0494 -0.0214,-0.10226 -0.0423,-0.14427 -0.45292,-0.87322 -0.90518,-1.7472 -1.35763,-2.62087 -0.0655,-0.12098 -0.12471,-0.25095 -0.19382,-0.3663 -0.0484,0.31045 -0.0864,0.62531 -0.13175,0.93698 -0.11928,0.87109 -0.24231,1.74096 -0.3599,2.6125 0.27972,0.37696 0.5571,0.75878 0.83616,1.13695 0.0382,0.0548 0.0792,0.1041 0.1161,0.16162 -0.0689,0.007 -0.13785,-0.002 -0.20678,0.002 -0.0205,-5.5e-4 -0.0409,1.4e-4 -0.0609,-0.005 -0.091,-0.0225 -0.18361,-0.007 -0.27522,-0.0109 -0.015,2.7e-4 -0.0298,-1.4e-4 -0.0443,-0.004 -0.0878,-0.0262 -0.17722,-0.003 -0.26566,-0.0149 -0.14309,-0.0224 -0.28685,-0.008 -0.43031,-0.0126 -0.0214,0 -0.0429,0 -0.0641,-0.002 -0.0977,-0.009 -0.1956,-0.0156 -0.2935,-0.0129 -0.0209,-1.4e-4 -0.0418,-2.6e-4 -0.0625,-0.002 -0.0978,-0.01 -0.19579,-0.0156 -0.29379,-0.0133 -0.0272,-4.1e-4 -0.0543,2.7e-4 -0.0812,-0.002 -0.0856,-0.0113 -0.1717,-0.0154 -0.2575,-0.0116 -0.12415,-0.008 -0.24858,0.002 -0.37227,-0.0166 0.0838,-0.004 0.16757,0.005 0.2513,0.006 0.0723,-1.52501 0.14816,-3.04941 0.22159,-4.57427 0.0691,-1.40631 0.13616,-2.81277 0.20564,-4.21908 -5.3e-4,-0.03 0.0124,-0.0501 0.0267,-0.0653 0.43219,-0.51072 0.86411,-1.02235 1.29602,-1.53384 0.0575,-0.0741 0.12406,-0.13209 0.17451,-0.21914 0.3869,-0.98036 0.77164,-1.96299 1.15751,-2.94441 0.0206,-0.0607 0.0518,-0.11261 0.0632,-0.18094 0.004,-0.0179 0.0117,-0.0328 0.0185,-0.0482 3.4e-4,-8e-4 7.9e-4,-0.002 0.002,-0.004 0.005,-0.0102 0.0134,-0.0306 0.0179,-0.0408 4.3e-4,-7.9e-4 0.002,-0.002 0.002,-0.004 0.0344,-0.0788 0.0677,-0.15903 0.10052,-0.23968 z"
         id="path10-1"
         style="fill:#514846;stroke:#514846;stroke-width:0.0119459" />
      <path
         class="st4"
         d="m 173.28109,350.71647 c 4.3e-4,-8e-4 0.002,-0.002 0.002,-0.004 -3.5e-4,7.9e-4 -8e-4,0.002 -0.002,0.004 z"
         id="path12-9"
         style="opacity:0.29;fill:#3a3938;stroke:#3a3938;stroke-width:0.0119459;enable-background:new" />
      <path
         class="st5"
         d="m 173.26158,350.76091 c 3.5e-4,-8e-4 7.9e-4,-0.002 0.002,-0.004 -3.4e-4,7.9e-4 -8e-4,0.002 -0.002,0.004 z"
         id="path14-3"
         style="opacity:0.41;fill:#4d4a49;stroke:#4d4a49;stroke-width:0.0119459;enable-background:new" />
      <path
         class="st0"
         d="m 172.885,351.62423 c 0.11974,-0.27119 0.23611,-0.54664 0.35811,-0.81509 -0.0113,0.0683 -0.0425,0.12023 -0.0632,0.18094 -0.38587,0.98143 -0.77061,1.96407 -1.15751,2.94442 -0.0504,0.087 -0.11703,0.14502 -0.17451,0.21914 -0.43192,0.51148 -0.86383,1.02312 -1.29602,1.53384 -0.0144,0.0152 -0.0274,0.0353 -0.0267,0.0653 -0.0695,1.40631 -0.13662,2.81276 -0.20564,4.21908 -0.0734,1.52486 -0.14928,3.04926 -0.22158,4.57428 -0.0837,-0.002 -0.16748,-0.0106 -0.25131,-0.006 -0.1128,-0.005 -0.22571,-0.006 -0.33832,-0.0141 0.0228,-1.3e-4 0.0455,-0.002 0.0686,-0.002 -0.10521,-0.42718 -0.21736,-0.84994 -0.32407,-1.27605 -0.0139,-0.0541 0.008,-0.10743 0.0167,-0.15857 0.36347,-1.85053 0.7258,-3.70151 1.08973,-5.55174 0.0214,-0.13254 0.057,-0.25916 0.0724,-0.39415 0.0217,-0.45152 0.0479,-0.90258 0.0658,-1.35442 -0.13719,0.14884 -0.26884,0.31076 -0.40453,0.46309 -0.0259,0.0259 -0.0479,0.0688 -0.0797,0.0733 -0.14159,0.0248 -0.28384,0.0387 -0.42525,0.0654 -0.0643,0.3039 -0.12321,0.61101 -0.18679,0.91553 -0.0223,0.10393 -0.0381,0.21183 -0.0645,0.31349 -0.0316,-0.1359 -0.0543,-0.27682 -0.0815,-0.415 -0.0568,-0.29219 -0.10953,-0.58651 -0.16841,-0.87764 -0.0748,0.079 -0.14395,0.17121 -0.21624,0.25583 -0.077,0.093 -0.15519,0.18337 -0.23021,0.28062 7.9e-4,-0.0391 0.0217,-0.0652 0.0356,-0.0939 0.0727,-0.13149 0.14132,-0.26905 0.21446,-0.39963 0.53919,-0.23009 1.0809,-0.44756 1.62065,-0.67508 0.25131,-0.35641 0.49793,-0.7227 0.74765,-1.08276 0.28694,-0.41714 0.57378,-0.83442 0.861,-1.25094 0.029,-0.0396 0.047,-0.095 0.0696,-0.14351 0.232,-0.5308 0.46389,-1.06162 0.69589,-1.59242 z"
         id="path16-6"
         style="fill:#7a6d6b;stroke:#7a6d6b;stroke-width:0.0119459" />
      <path
         class="st6"
         d="m 176.38858,353.20113 c 0.003,-0.006 0.009,-0.0166 0.0115,-0.0221 0.10896,0.10561 0.21914,0.20848 0.32632,0.31881 l -0.002,1.4e-4 c -0.004,8e-4 -0.0117,0.002 -0.0155,0.004 0.008,0.15645 0.0294,0.31015 0.0426,0.46568 0.0445,0.45472 0.0887,0.90959 0.13334,1.3643 0.007,0.054 0.003,0.11643 0.0244,0.16285 1.08485,2.13084 2.16932,4.26214 3.25417,6.39314 0.0995,0.19343 0.19625,0.3905 0.29828,0.58058 l -3.4e-4,0.0172 c -0.0521,-0.0738 -0.0929,-0.16496 -0.14206,-0.24333 -1.00814,-1.76774 -2.01553,-3.53732 -3.02601,-5.30201 -0.17967,-0.31669 -0.36027,-0.63186 -0.54022,-0.94809 -0.036,-0.0683 -0.0795,-0.12723 -0.11028,-0.2021 -0.0856,-0.86241 -0.16673,-1.72665 -0.25356,-2.58891 z"
         id="path18-5"
         style="fill:#514745;stroke:#514745;stroke-width:0.0119459" />
      <path
         class="st2"
         d="m 176.70825,353.50185 c 0.004,-7.9e-4 0.0117,-0.002 0.0155,-0.004 0.2454,0.23238 0.48799,0.47283 0.73264,0.70719 1.7e-4,0.006 3.4e-4,0.0162 4.3e-4,0.0214 9e-5,0.0548 0.0284,0.0945 0.0433,0.14032 1.21247,3.10603 2.42362,6.21327 3.63599,9.31915 0.006,0.0196 0.0123,0.0405 0.018,0.0614 -0.0322,-0.0394 -0.0533,-0.0965 -0.0827,-0.14046 -0.0406,-0.061 -0.0717,-0.13637 -0.11188,-0.19769 -0.0454,-0.0694 -0.0811,-0.15295 -0.12678,-0.22143 -0.0927,-0.16907 -0.18988,-0.33145 -0.28187,-0.50144 -0.0286,-0.0513 -0.0641,-0.0936 -0.0842,-0.15568 0.0173,0.0233 0.0352,0.0452 0.0541,0.0657 -0.0118,-0.0517 -0.0367,-0.0899 -0.0598,-0.12813 -0.10202,-0.19008 -0.1988,-0.38716 -0.29829,-0.58058 -1.08484,-2.131 -2.16931,-4.2623 -3.25415,-6.39315 -0.0214,-0.0464 -0.0173,-0.10881 -0.0244,-0.16283 -0.0446,-0.45472 -0.0888,-0.90959 -0.13335,-1.36431 -0.0132,-0.15553 -0.0343,-0.30924 -0.0426,-0.46567 z"
         id="path20-2"
         style="fill:#8a7e7b;stroke:#8a7e7b;stroke-width:0.0119459" />
      <path
         class="st7"
         d="m 177.45637,354.20523 c 0.25252,0.24578 0.50655,0.48789 0.75776,0.73687 0.46914,0.83167 0.93603,1.66745 1.40517,2.49943 0.14844,0.26646 0.29922,0.52959 0.44701,0.79728 -0.004,0.002 -0.0117,0.005 -0.0155,0.006 -0.86494,-1.33889 -1.72923,-2.67901 -2.594,-4.01851 -8e-5,-0.006 -2.6e-4,-0.0162 -4.3e-4,-0.0214 z"
         id="path22-1"
         style="fill:#aa9f9d;stroke:#aa9f9d;stroke-width:0.0119459" />
      <path
         class="st0"
         d="m 177.50015,354.367 c -0.0149,-0.0458 -0.0433,-0.0855 -0.0433,-0.14032 0.86477,1.33951 1.72906,2.67962 2.59401,4.01852 0.004,-0.002 0.0117,-0.005 0.0155,-0.006 l 0.002,-8e-4 c 0.0224,0.0436 0.0523,0.0779 0.067,0.13088 0.009,0.0342 0.0253,0.065 0.0304,0.10195 -0.004,0.044 0.0102,0.0832 0.0199,0.12266 0.36815,1.48027 0.7392,2.95918 1.10622,4.43991 0.005,0.50159 4.3e-4,1.00409 0.002,1.50613 3.4e-4,0.0433 -7.9e-4,0.0869 -0.002,0.13042 -0.0531,0.014 -0.10802,-0.006 -0.15969,0.021 l -0.002,2.7e-4 c -0.0425,-0.0715 -0.097,-0.11901 -0.14489,-0.17958 -0.39627,-0.45806 -0.79302,-0.91506 -1.18929,-1.37298 -0.0836,-0.0975 -0.1672,-0.19463 -0.25206,-0.28869 -8e-4,0.0119 -0.003,0.0356 -0.004,0.0476 -0.005,-0.0361 -0.002,-0.0783 -0.0175,-0.10743 -1.06647,-1.87549 -2.13387,-3.7496 -3.20034,-5.62494 0.0908,-0.0329 0.18409,-0.0426 0.27579,-0.067 0.23208,-0.0534 0.46444,-0.10257 0.69635,-0.15796 1.01048,1.76469 2.01787,3.53425 3.02601,5.302 0.0491,0.0783 0.0899,0.16953 0.14206,0.24334 l 3.4e-4,-0.0172 c 0.0231,0.0383 0.0479,0.0764 0.0598,0.12814 -0.0188,-0.0206 -0.0368,-0.0425 -0.0541,-0.0657 0.0202,0.0621 0.0556,0.1044 0.0842,0.15569 0.092,0.16998 0.18913,0.33235 0.28187,0.50143 0.0457,0.0685 0.0814,0.15203 0.12678,0.22143 0.0402,0.0614 0.0713,0.13666 0.11187,0.19768 0.0294,0.044 0.0504,0.10105 0.0827,0.14047 -0.006,-0.0209 -0.0114,-0.0417 -0.018,-0.0614 -1.21238,-3.10586 -2.42353,-6.2131 -3.63599,-9.31913 z"
         id="path24-5"
         style="fill:#7a6d6b;stroke:#7a6d6b;stroke-width:0.0119459" />
      <path
         class="st2"
         d="m 172.98111,354.50092 c 0.23012,-0.0776 0.46004,-0.15675 0.69016,-0.23406 0.0329,-0.0237 0.0435,0.0381 0.0583,0.0715 0.19316,0.50251 0.38811,1.00318 0.58148,1.50569 0.20414,0.5235 0.40471,1.05081 0.61007,1.5731 l -0.006,0.0151 c -0.0774,-0.10058 -0.14357,-0.22096 -0.2198,-0.32353 -0.0611,-0.10486 -0.13185,-0.19297 -0.19317,-0.29721 -0.1219,-0.17714 -0.23874,-0.36281 -0.36027,-0.54025 -0.0631,-0.10622 -0.13494,-0.19708 -0.19795,-0.3033 -0.0702,-0.094 -0.13091,-0.20422 -0.20077,-0.29858 -0.063,-0.10622 -0.13465,-0.19692 -0.19767,-0.30284 -0.0727,-0.1 -0.13756,-0.21336 -0.21033,-0.31304 -0.0579,-0.0995 -0.125,-0.18292 -0.18351,-0.28123 -0.0575,-0.0895 -0.12246,-0.16801 -0.17123,-0.27134 z"
         id="path26-1"
         style="fill:#8a7e7b;stroke:#8a7e7b;stroke-width:0.0119459" />
      <path
         class="st0"
         d="m 172.97736,354.49879 0.004,0.002 c 0.0487,0.10333 0.11365,0.18186 0.17122,0.27134 0.0585,0.0983 0.12565,0.1817 0.18352,0.28123 0.0728,0.0997 0.13765,0.21305 0.21032,0.31304 0.063,0.10592 0.13466,0.19662 0.19767,0.30284 0.0698,0.0943 0.13062,0.20453 0.20077,0.29858 0.063,0.10622 0.13484,0.19707 0.19795,0.30329 0.12153,0.17745 0.23837,0.36311 0.36027,0.54025 0.0614,0.10424 0.13203,0.19236 0.19317,0.29721 0.0763,0.10257 0.14244,0.22295 0.2198,0.32354 l 0.006,-0.0151 c 0.006,0.0171 0.0136,0.0342 0.0205,0.0519 0.18529,0.48942 0.37612,0.97336 0.5632,1.46095 0.43781,1.1307 0.87451,2.26248 1.31242,3.39288 0.033,0.0948 0.0527,0.19966 0.0803,0.29874 0.15631,0.61375 0.31281,1.22734 0.46904,1.84109 0.0165,0.066 0.0356,0.13073 0.0468,0.20012 -0.10512,-0.19662 -0.20292,-0.40375 -0.30513,-0.60446 -0.45696,-0.91233 -0.91324,-1.82558 -1.37028,-2.73775 -0.0387,-0.0738 -0.0722,-0.15538 -0.11694,-0.22006 -0.55335,-0.78114 -1.10641,-1.5629 -1.66004,-2.3436 -0.0267,-0.0377 -0.0575,-0.0721 -0.0718,-0.12676 -0.36646,-1.22126 -0.73442,-2.4413 -1.10051,-3.66302 -0.0287,-0.0873 -0.0498,-0.18185 -0.0847,-0.26357 0.0167,0.12783 0.0494,0.24866 0.0729,0.3736 0.13315,0.63248 0.26218,1.26722 0.39534,1.89969 0.12575,0.61587 0.25675,1.22886 0.38137,1.84535 0.0198,0.10637 0.0497,0.20864 0.0601,0.31912 -0.0337,-0.11474 -0.0538,-0.23816 -0.0829,-0.35595 -0.11262,-0.50189 -0.22365,-1.005 -0.33579,-1.5072 -0.0256,-0.10806 -0.0454,-0.2199 -0.075,-0.32522 -0.048,0.56049 -0.0933,1.12143 -0.13944,1.68237 -0.002,0.041 -0.009,0.0857 0.004,0.12463 0.37865,1.28761 0.75515,2.5772 1.13361,3.86496 0.009,-0.0768 -8e-4,-0.15462 -0.002,-0.23191 -0.007,-0.32203 -0.0255,-0.64344 -0.0258,-0.96576 0.0331,0.10501 0.0484,0.22158 0.074,0.33161 0.1264,0.60751 0.25309,1.21487 0.37828,1.82299 0.0775,0.36934 0.15566,0.73868 0.22908,1.11031 -0.008,0 -0.0242,0 -0.0322,1.4e-4 -0.13373,-0.41364 -0.25863,-0.83457 -0.39141,-1.24896 -0.67384,-2.16371 -1.34984,-4.32576 -2.02405,-6.48917 -0.0237,-0.0857 -0.0583,-0.1642 -0.0744,-0.25445 -0.0197,-0.41484 -0.0382,-0.83 -0.0579,-1.24499 -0.008,-0.14063 -0.0102,-0.28215 -0.0218,-0.42201 -0.12959,0.0418 -0.25975,0.0791 -0.38934,0.12037 -0.0637,1.3456 -0.12106,2.6921 -0.18651,4.03723 -0.0145,-0.0502 -0.006,-0.10744 -0.009,-0.16085 5.3e-4,-1.26296 1e-4,-2.52576 2.7e-4,-3.78872 0.002,-0.0855 -0.006,-0.17288 0.004,-0.25718 0.0219,-0.028 0.0548,-0.0248 0.0814,-0.0379 0.24239,-0.082 0.48452,-0.16527 0.72701,-0.24654 0.19298,-0.0679 0.38709,-0.12752 0.57932,-0.20042 m 1.63153,3.39091 c -0.17488,0.2237 -0.34986,0.44696 -0.52475,0.67052 -0.0275,0.041 -0.0634,0.0702 -0.0861,0.11809 0.0338,0.0674 0.0786,0.1187 0.11637,0.18048 0.18642,0.27545 0.36908,0.55835 0.55832,0.82878 0.0899,-0.73656 0.17713,-1.47403 0.26406,-2.21134 -0.11224,0.13132 -0.21812,0.27681 -0.32792,0.41347 z"
         id="path28-9"
         style="fill:#7a6d6b;stroke:#7a6d6b;stroke-width:0.0119459" />
      <path
         class="st3"
         d="m 172.70402,354.70362 c 0.0348,0.0817 0.0559,0.17623 0.0847,0.26359 0.36608,1.22171 0.73404,2.44175 1.1005,3.66301 0.0143,0.0546 0.045,0.089 0.0717,0.12676 0.55363,0.78069 1.10669,1.56245 1.66004,2.3436 0.0448,0.0647 0.0783,0.14624 0.11693,0.22006 0.45704,0.91217 0.91334,1.82541 1.37028,2.73774 0.10222,0.20073 0.20002,0.40785 0.30514,0.60446 -0.0113,-0.0694 -0.0303,-0.13407 -0.0468,-0.20011 -0.15622,-0.61375 -0.31272,-1.22734 -0.46904,-1.84109 -0.0275,-0.0991 -0.0472,-0.20393 -0.0803,-0.29874 -0.43792,-1.13041 -0.87461,-2.26218 -1.31243,-3.39289 -0.18707,-0.48759 -0.3779,-0.97153 -0.56319,-1.46094 0.45835,-0.10379 0.91718,-0.20362 1.37525,-0.31046 l 0.004,0.006 c 1.06646,1.87535 2.13387,3.74946 3.20032,5.62494 0.0155,0.029 0.0128,0.0713 0.0175,0.10744 0.0435,0.49901 0.087,0.99801 0.13006,1.49716 0.008,0.1 0.0212,0.19906 0.0233,0.30026 -0.34996,-0.007 -0.70019,-7.9e-4 -1.05034,-0.002 -0.43031,1.3e-4 -0.86053,-1.4e-4 -1.29076,0 -0.134,-0.18642 -0.27354,-0.36235 -0.4096,-0.54466 -0.42263,-0.55713 -0.84516,-1.11427 -1.26751,-1.67187 -0.076,-0.0936 -0.14506,-0.2024 -0.22486,-0.28747 0.0278,0.11718 0.0648,0.22813 0.0984,0.3412 0.19607,0.64585 0.38924,1.29415 0.58654,1.93894 0.10137,0.0484 0.20302,0.0951 0.30438,0.14381 0.0506,0.026 0.10306,0.0433 0.15182,0.0783 -0.60605,0.004 -1.21209,4.1e-4 -1.81814,0.002 -0.0734,-0.37162 -0.15154,-0.74097 -0.22909,-1.11031 -0.12518,-0.60812 -0.25187,-1.21548 -0.37827,-1.82299 -0.0256,-0.11003 -0.041,-0.2266 -0.074,-0.3316 -0.0108,-0.0741 -0.006,-0.15325 -0.0239,-0.22447 -0.15566,-0.68437 -0.30195,-1.3742 -0.45255,-2.06146 -0.0104,-0.11047 -0.0403,-0.21275 -0.0601,-0.31912 -0.12462,-0.61649 -0.25562,-1.22947 -0.38137,-1.84535 -0.13316,-0.63247 -0.26219,-1.26722 -0.39535,-1.89969 -0.0236,-0.12493 -0.0562,-0.24577 -0.0729,-0.3736 z"
         id="path30-1"
         style="fill:#514846;stroke:#514846;stroke-width:0.0119459" />
      <path
         class="st8"
         d="m 170.09285,356.25086 c 0.13569,-0.15234 0.26735,-0.31426 0.40454,-0.46309 -0.018,0.45183 -0.0441,0.90289 -0.0658,1.35441 -0.0154,0.13499 -0.0509,0.26161 -0.0724,0.39415 -0.36394,1.85022 -0.72627,3.70122 -1.08972,5.55174 -0.008,0.0511 -0.0306,0.10455 -0.0168,0.15858 0.10671,0.4261 0.21886,0.84886 0.32407,1.27604 -0.0229,7.9e-4 -0.0458,0.002 -0.0686,0.002 -0.12837,-0.004 -0.25675,-0.002 -0.38493,-0.0156 -0.122,-0.003 -0.24408,-0.003 -0.3659,-0.0154 -0.11224,-0.004 -0.22533,-2.7e-4 -0.33664,-0.0135 0.0625,0.002 0.125,-0.008 0.18736,0.002 0.0357,-0.38151 0.0671,-0.76425 0.10183,-1.14623 0.028,-0.31334 0.0514,-0.62821 0.089,-0.93911 0.0648,-0.59519 0.13034,-1.19007 0.19589,-1.78479 0.006,-0.0811 -0.006,-0.16177 -0.01,-0.24227 -0.0438,-0.66976 -0.0873,-1.33935 -0.13166,-2.00895 -0.004,-0.067 -0.004,-0.13529 -0.0171,-0.19966 -0.0248,0.5617 -0.0567,1.12234 -0.083,1.68388 -0.002,0.0554 -0.0252,0.0985 -0.0418,0.14412 -0.0502,0.12722 -0.0976,0.25734 -0.14787,0.38456 -0.0141,0.0361 -0.0312,0.0722 -0.0331,0.11657 -0.0817,1.28365 -0.16587,2.56701 -0.24764,3.85066 -0.005,0.0402 8e-5,0.0869 -0.0125,0.12281 -0.0748,0.004 -0.14957,-0.002 -0.2243,-8e-4 -0.14028,2.8e-4 -0.28056,-0.008 -0.42066,-0.0176 -0.0919,-0.0102 -0.18407,-0.0149 -0.27606,-0.0114 -0.036,-0.002 -0.072,-7.9e-4 -0.10784,-0.004 -0.0888,-0.011 -0.17798,-0.0158 -0.26697,-0.0113 -0.0201,0 -0.0399,-0.002 -0.0598,-0.002 -0.0502,-0.084 -0.10934,-0.15187 -0.16335,-0.22888 -0.28816,-0.38974 -0.57632,-0.77932 -0.86448,-1.16891 -0.0173,-0.0252 -0.036,-0.0476 -0.0554,-0.0679 0.006,0.15431 0.0251,0.30649 0.0361,0.46004 0.026,0.32065 0.0558,0.64069 0.0793,0.96179 -0.0569,8e-4 -0.11384,-4.1e-4 -0.17075,-1.3e-4 -0.004,-1.3e-4 -0.0127,-4.1e-4 -0.0169,-5.5e-4 -0.0594,-0.60078 -0.11806,-1.2019 -0.17902,-1.80226 0.006,-0.002 0.0121,-0.005 0.0184,-0.006 0.99435,-1.87426 1.99152,-3.74518 2.98475,-5.62112 -7.9e-4,-0.0198 -0.002,-0.0396 -0.002,-0.0592 0.002,0.008 0.008,0.0227 0.0103,0.0301 0.0171,-0.0143 0.0336,-0.031 0.0491,-0.0501 0.075,-0.0972 0.15322,-0.18765 0.23021,-0.28063 0.0723,-0.0846 0.1414,-0.17683 0.21623,-0.25581 0.0589,0.29111 0.11159,0.58544 0.16842,0.87762 0.0272,0.13819 0.0499,0.27911 0.0815,0.415 0.0265,-0.10165 0.0422,-0.20955 0.0645,-0.31349 0.0636,-0.30452 0.12247,-0.61161 0.1868,-0.91553 0.1414,-0.0268 0.28366,-0.0406 0.42525,-0.0654 0.0319,-0.005 0.0538,-0.0475 0.0797,-0.0733 z"
         id="path32-0"
         style="fill:#564c4a;stroke:#564c4a;stroke-width:0.0119459" />
      <path
         class="st7"
         d="m 173.11999,356.95302 c 0.0296,0.10531 0.0495,0.21717 0.075,0.32521 0.11214,0.5022 0.22317,1.00531 0.33578,1.50721 0.029,0.11779 0.0492,0.24121 0.0829,0.35595 0.1506,0.68726 0.29688,1.37709 0.45255,2.06145 0.0182,0.0712 0.0131,0.15036 0.0239,0.22448 1.6e-4,0.32232 0.019,0.64372 0.0258,0.96574 5.3e-4,0.0773 0.0106,0.15507 0.002,0.23193 -0.37846,-1.28777 -0.75495,-2.57736 -1.13361,-3.86496 -0.0127,-0.0389 -0.006,-0.0835 -0.004,-0.12464 0.0461,-0.56094 0.0914,-1.12188 0.13945,-1.68237 z"
         id="path42-0"
         style="fill:#aa9f9d;stroke:#aa9f9d;stroke-width:0.0119459" />
      <path
         class="st7"
         d="m 174.60889,357.8897 c 0.10982,-0.13666 0.21568,-0.28214 0.32792,-0.41347 -0.0869,0.73731 -0.17412,1.47478 -0.26406,2.21134 -0.18922,-0.27043 -0.37189,-0.55333 -0.55831,-0.82877 -0.0378,-0.0618 -0.0826,-0.11308 -0.11637,-0.18049 0.0227,-0.0479 0.0585,-0.077 0.0861,-0.11809 0.17488,-0.22356 0.34986,-0.44682 0.52474,-0.67052 z"
         id="path44-9"
         style="fill:#aa9f9d;stroke:#aa9f9d;stroke-width:0.0119459" />
      <path
         class="st0"
         d="m 168.83631,358.16196 c 0.0135,0.0644 0.0128,0.13269 0.0171,0.19966 0.0444,0.6696 0.0879,1.33919 0.13165,2.00894 0.004,0.0805 0.0165,0.16116 0.01,0.24228 -0.0656,0.59472 -0.1311,1.1896 -0.19589,1.78478 -0.0377,0.31091 -0.0609,0.62578 -0.089,0.93911 -0.0347,0.38198 -0.0661,0.76472 -0.10184,1.14624 -0.0624,-0.0102 -0.1249,-4.1e-4 -0.18735,-0.002 -0.12481,-0.01 -0.24999,-0.002 -0.37472,-0.0174 0.0748,-0.002 0.14957,0.006 0.22431,7.9e-4 0.0126,-0.036 0.008,-0.0826 0.0125,-0.12281 0.0818,-1.28366 0.16598,-2.567 0.24765,-3.85065 0.002,-0.0444 0.019,-0.0805 0.0331,-0.11657 0.0502,-0.12723 0.0976,-0.25734 0.14787,-0.38456 0.0166,-0.0456 0.04,-0.0887 0.0418,-0.14412 0.0264,-0.56155 0.0583,-1.12219 0.083,-1.68389 z"
         id="path46-6"
         style="fill:#7a6d6b;stroke:#7a6d6b;stroke-width:0.0119459" />
      <path
         class="st2"
         d="m 180.18521,358.59338 c -0.01,-0.0394 -0.0242,-0.0787 -0.0199,-0.12265 0.0842,0.24699 0.16081,0.50113 0.24249,0.75056 0.22787,0.70962 0.45602,1.41894 0.68398,2.12841 0.0499,0.1496 0.0943,0.30451 0.14759,0.45092 0.46961,0.9353 0.94081,1.86879 1.40883,2.80638 -0.0667,0.01 -0.13354,0.007 -0.20011,0.01 -0.0753,-0.002 -0.15013,0.016 -0.22534,0.0126 -0.1219,-0.002 -0.24324,0.019 -0.36505,0.0169 -0.0848,-0.002 -0.16907,0.0141 -0.25374,0.0135 -0.0718,0.003 -0.14385,-0.002 -0.21531,0.0126 -0.0329,0.006 -0.0671,-0.003 -0.0979,0.0196 -0.0532,0.006 -0.10653,0.005 -0.15951,-7.9e-4 0.0517,-0.0266 0.10661,-0.007 0.1597,-0.021 0.002,-0.0435 0.003,-0.087 0.002,-0.13042 -0.002,-0.50205 0.002,-1.00456 -0.002,-1.50614 -0.36703,-1.48073 -0.73808,-2.95963 -1.10623,-4.4399 z"
         id="path48-1"
         style="fill:#8a7e7b;stroke:#8a7e7b;stroke-width:0.0119459" />
      <path
         class="st0"
         d="m 171.96229,360.73382 c 0.0454,-0.31166 0.0834,-0.62653 0.13174,-0.93698 0.0691,0.11535 0.12838,0.24531 0.19383,0.3663 0.45244,0.87367 0.90471,1.74765 1.35763,2.62088 0.0208,0.042 0.0301,0.0948 0.0423,0.14426 0.14206,0.58849 0.28881,1.17408 0.42825,1.76424 -0.20845,0.003 -0.4169,-7.9e-4 -0.62536,0.002 -0.36524,-0.0139 -0.73057,-0.0333 -1.09591,-0.0432 -0.016,0.002 -0.0325,0.009 -0.0469,-0.005 0.0689,-0.003 0.13784,0.006 0.20677,-0.002 -0.0368,-0.0575 -0.0779,-0.10684 -0.1161,-0.16162 -0.27906,-0.37817 -0.55643,-0.75999 -0.83615,-1.13695 0.11759,-0.87154 0.24061,-1.74141 0.35989,-2.6125 z"
         id="path50-2"
         style="fill:#7a6d6b;stroke:#7a6d6b;stroke-width:0.0119459" />
      <path
         class="st0"
         d="m 175.44862,362.18807 c 0.0798,0.0851 0.14882,0.19388 0.22486,0.28747 0.42235,0.5576 0.84489,1.11473 1.26752,1.67186 0.13606,0.18232 0.27559,0.35825 0.40959,0.54467 -0.25365,7.9e-4 -0.5074,0.005 -0.76086,-0.002 -0.0487,-0.035 -0.10119,-0.0524 -0.15182,-0.0783 -0.10137,-0.0487 -0.20302,-0.0954 -0.30438,-0.14381 -0.1973,-0.64479 -0.39046,-1.29309 -0.58655,-1.93894 -0.0336,-0.11307 -0.0706,-0.22402 -0.0984,-0.34119 z"
         id="path64-6"
         style="fill:#7a6d6b;stroke:#7a6d6b;stroke-width:0.0119459" />
      <path
         class="st2"
         d="m 179.54231,362.8499 c 0.0849,0.0941 0.16851,0.19115 0.25207,0.28869 0.39627,0.45792 0.79302,0.91492 1.18929,1.37299 0.0479,0.0606 0.1024,0.10805 0.14488,0.17957 -0.31657,0.008 -0.63342,0.004 -0.94999,0.005 -0.16232,-7.9e-4 -0.32464,0.002 -0.48686,-0.002 -0.002,-0.10119 -0.0152,-0.20026 -0.0233,-0.30025 -0.043,-0.49916 -0.0865,-0.99816 -0.13006,-1.49716 7.9e-4,-0.0121 0.003,-0.0358 0.004,-0.0476 z"
         id="path66-9"
         style="fill:#8a7e7b;stroke:#8a7e7b;stroke-width:0.0119459" />
      <path
         class="st0"
         d="m 165.8315,362.95066 c 0.0194,0.0202 0.0382,0.0426 0.0554,0.0679 0.28815,0.38958 0.57631,0.77917 0.86447,1.1689 0.054,0.077 0.11318,0.14488 0.16335,0.22888 -0.27971,-0.009 -0.55944,-0.0217 -0.83916,-0.0321 -0.0998,-0.005 -0.19974,-4.1e-4 -0.29941,-0.0119 0.0569,-2.7e-4 0.11384,0.002 0.17076,1.4e-4 -0.0236,-0.32111 -0.0533,-0.64114 -0.0793,-0.96179 -0.0111,-0.15355 -0.0299,-0.30574 -0.0361,-0.46005 z"
         id="path70-6"
         style="fill:#7a6d6b;stroke:#7a6d6b;stroke-width:0.0119459" />
      <path
         class="st14"
         d="m 166.97457,364.4192 c 0.089,-0.005 0.17817,2.7e-4 0.26697,0.0113 -0.089,0.002 -0.17854,0.006 -0.26697,-0.0113 z"
         id="path74-8"
         style="opacity:0.58;fill:#554f4d;stroke:#554f4d;stroke-width:0.0119459;enable-background:new" />
      <path
         class="st15"
         d="m 167.34938,364.43427 c 0.092,-0.003 0.18416,7.9e-4 0.27606,0.0114 -0.092,0.002 -0.18463,0.006 -0.27606,-0.0114 z"
         id="path76-4"
         style="opacity:0.62;fill:#564f4e;stroke:#564f4e;stroke-width:0.0119459;enable-background:new" />
      <path
         class="st16"
         d="m 170.21888,364.55601 c 0.0858,-0.004 0.17188,2.7e-4 0.2575,0.0116 -0.0858,0.002 -0.17226,0.006 -0.2575,-0.0116 z"
         id="path78-3"
         style="opacity:0.61;fill:#554f4e;stroke:#554f4e;stroke-width:0.0119459;enable-background:new" />
      <path
         class="st17"
         d="m 170.55759,364.56986 c 0.098,-0.002 0.19598,0.003 0.29379,0.0133 -0.0979,0.002 -0.19636,0.006 -0.29379,-0.0133 z"
         id="path80-0"
         style="opacity:0.6;fill:#524b4a;stroke:#524b4a;stroke-width:0.0119459;enable-background:new" />
      <path
         class="st18"
         d="m 170.91382,364.58524 c 0.0979,-0.002 0.1958,0.003 0.29351,0.0129 -0.0978,0.002 -0.19617,0.006 -0.29351,-0.0129 z"
         id="path82-0"
         style="opacity:0.59;fill:#524b4a;stroke:#524b4a;stroke-width:0.0119459;enable-background:new" />
      <path
         class="st9"
         d="m 171.27147,364.60015 c 0.14347,0.005 0.28722,-0.01 0.43032,0.0126 0.0884,0.0119 0.17788,-0.0113 0.26565,0.0149 -0.14197,0.006 -0.28375,-0.014 -0.42563,-0.0143 -0.0902,-0.005 -0.18041,-4.2e-4 -0.27034,-0.0133 z"
         id="path84-4"
         style="fill:#6a5f5c;stroke:#6a5f5c;stroke-width:0.0119459" />
      <path
         class="st0"
         d="m 182.64821,364.607 8e-4,-1.4e-4 c 0.01,0.0204 0.0199,0.0403 0.0297,0.0619 5.3e-4,0.006 0.002,0.0179 0.002,0.024 -0.46369,0.002 -0.92739,0.002 -1.391,-5.4e-4 0.0308,-0.023 0.0651,-0.0134 0.0979,-0.0197 0.0714,-0.014 0.14348,-0.009 0.21531,-0.0126 0.0847,5.4e-4 0.16898,-0.0155 0.25374,-0.0135 0.12181,0.002 0.24315,-0.0194 0.36505,-0.0169 0.0753,0.003 0.15004,-0.0149 0.22534,-0.0126 0.0666,-0.003 0.13344,0 0.20011,-0.01 z"
         id="path86-3"
         style="fill:#7a6d6b;stroke:#7a6d6b;stroke-width:0.0119459" />
      <path
         class="st9"
         d="m 172.0117,364.63134 c 0.0916,0.004 0.18427,-0.0116 0.27522,0.011 -0.0918,0.005 -0.1836,-0.004 -0.27522,-0.011 z"
         id="path88-0"
         style="fill:#6a5f5c;stroke:#6a5f5c;stroke-width:0.0119459" />
      <path
         class="st11"
         d="m 182.67916,364.66878 -7.9e-4,-0.01 c 0.009,0.0121 0.0138,0.0274 0.015,0.0464 -0.24738,-0.008 -0.49493,-0.002 -0.7423,-0.004 -0.31901,-5.5e-4 -0.63802,0.002 -0.95694,-2.8e-4 -0.43332,-0.002 -0.86626,0.0373 -1.2993,0.0483 -5.2e-4,-0.0111 -0.002,-0.0333 -0.002,-0.0444 l -5.2e-4,-0.0103 c 0.16223,0.003 0.32454,4.1e-4 0.48686,8e-4 0.31658,-8e-4 0.63343,0.003 0.95,-0.005 l 0.002,-2.7e-4 c 0.0529,0.006 0.10633,0.007 0.1595,0.002 0.46361,0.003 0.92731,0.002 1.39101,5.4e-4 -5.2e-4,-0.006 -0.002,-0.0181 -0.002,-0.024 z"
         id="path90-6"
         style="opacity:0.3;fill:#3d3b3b;stroke:#3d3b3b;stroke-width:0.0119459;enable-background:new" />
      <path
         class="st19"
         d="m 173.49067,364.69481 c 0.20846,-0.004 0.41691,7.9e-4 0.62536,-0.002 0.2078,-8e-4 0.41551,-1.4e-4 0.6233,-1.4e-4 0.008,-1.3e-4 0.0242,-1.3e-4 0.0322,-1.3e-4 0.60605,-0.002 1.21209,0.002 1.81814,-0.002 0.25347,0.007 0.50722,0.002 0.76087,0.002 0.43022,-1.4e-4 0.86044,1.3e-4 1.29076,0 0.35015,0.002 0.70038,-0.004 1.05034,0.002 l 5.2e-4,0.0103 c -0.59095,2.7e-4 -1.18199,0 -1.77294,0 -0.46914,0.004 -0.93827,-0.0121 -1.40732,1.4e-4 -0.7814,4.1e-4 -1.5628,-7.9e-4 -2.3442,1.3e-4 -0.13765,-0.008 -0.27531,-0.002 -0.41297,-0.005 -0.088,-0.003 -0.17667,0.008 -0.26435,-0.006 z"
         id="path92-5"
         style="opacity:0.36;fill:#454241;stroke:#454241;stroke-width:0.0119459;enable-background:new" />
    </g>
  </g>
</svg>
