<?xml version="1.0" encoding="UTF-8" standalone="no"?>
<svg
   xmlns:dc="http://purl.org/dc/elements/1.1/"
   xmlns:cc="http://creativecommons.org/ns#"
   xmlns:rdf="http://www.w3.org/1999/02/22-rdf-syntax-ns#"
   xmlns:svg="http://www.w3.org/2000/svg"
   xmlns="http://www.w3.org/2000/svg"
   xmlns:sodipodi="http://sodipodi.sourceforge.net/DTD/sodipodi-0.dtd"
   xmlns:inkscape="http://www.inkscape.org/namespaces/inkscape"
   width="21.84329mm"
   height="21.84329mm"
   viewBox="0 0 21.84329 21.84329"
   version="1.1"
   id="svg2126"
   inkscape:version="1.0.1 (3bc2e813f5, 2020-09-07)"
   sodipodi:docname="bcanyon.svg">
  <defs
     id="defs2120" />
  <sodipodi:namedview
     id="base"
     pagecolor="#ffffff"
     bordercolor="#666666"
     borderopacity="1.0"
     inkscape:pageopacity="0.0"
     inkscape:pageshadow="2"
     inkscape:zoom="3.959798"
     inkscape:cx="43.164339"
     inkscape:cy="59.423828"
     inkscape:document-units="mm"
     inkscape:current-layer="layer1"
     inkscape:document-rotation="0"
     showgrid="false"
     inkscape:window-width="1137"
     inkscape:window-height="987"
     inkscape:window-x="0"
     inkscape:window-y="0"
     inkscape:window-maximized="0" />
  <metadata
     id="metadata2123">
    <rdf:RDF>
      <cc:Work
         rdf:about="">
        <dc:format>image/svg+xml</dc:format>
        <dc:type
           rdf:resource="http://purl.org/dc/dcmitype/StillImage" />
        <dc:title />
      </cc:Work>
    </rdf:RDF>
  </metadata>
  <g
     inkscape:label="Слой 1"
     inkscape:groupmode="layer"
     id="layer1"
     transform="translate(-97.179544,-120.61407)">
    <path
       style="fill:#534c48;fill-opacity:1;stroke:#000000;stroke-width:0.0179539;stroke-linecap:round;stroke-linejoin:round;stroke-miterlimit:4;stroke-dasharray:none;stroke-opacity:1"
       d="m 118.9315,139.831 c -0.0717,0.24593 -0.15418,0.71652 -0.18332,1.04575 l -0.053,0.59864 -0.74932,-0.0502 c -0.6506,-0.0436 -0.81083,-0.03 -1.21613,0.10296 -0.25674,0.0842 -0.61479,0.18477 -0.79567,0.22343 -0.49584,0.10598 -1.6889,-0.0161 -2.35087,-0.24061 -0.93581,-0.31734 -1.87573,-0.4446 -2.57402,-0.34851 -0.32602,0.0449 -0.82822,0.0987 -1.116,0.11971 -0.38758,0.0283 -0.77108,0.13292 -1.47909,0.40366 l -0.95585,0.36551 h -1.22107 -1.22108 l -0.99045,-0.3381 -0.99045,-0.3381 -1.23711,0.0916 c -0.9757,0.0722 -1.50846,0.15626 -2.52131,0.39771 -0.706315,0.16837 -1.294682,0.28078 -1.307483,0.24979 -0.04804,-0.1163 0.216398,-2.00057 0.284092,-2.02432 0.419428,-0.14719 0.383725,-0.83341 -0.09953,-1.91297 -0.189195,-0.42264 -0.343775,-0.80084 -0.343509,-0.84043 5.05e-4,-0.0755 1.038281,-0.67803 1.438009,-0.83485 0.351246,-0.1378 1.864071,0.0749 2.764781,0.38871 l 0.69927,0.24364 0.17629,-0.30082 c 0.097,-0.16545 0.28912,-0.41017 0.42703,-0.54384 l 0.25075,-0.24303 0.54668,0.0919 c 0.40666,0.0683 0.73171,0.0731 1.26907,0.0186 l 0.72239,-0.0733 0.93454,0.32624 0.93455,0.32624 0.72757,-0.1451 0.72757,-0.14509 0.60341,0.17905 c 0.34809,0.10329 0.88172,0.1949 1.26115,0.21651 0.59753,0.034 0.67613,0.0229 0.8587,-0.1221 0.11054,-0.0878 0.20098,-0.20814 0.20098,-0.26751 0,-0.20485 0.20889,-0.51101 0.41474,-0.60784 0.18958,-0.0892 2.84296,-0.31284 2.95892,-0.2494 0.0266,0.0146 0.0694,0.15033 0.0949,0.30167 0.0256,0.15134 0.0706,0.31417 0.10005,0.36183 0.0295,0.0477 0.47797,0.16966 0.99669,0.27109 0.88341,0.17274 0.96117,0.20187 1.22798,0.45995 0.61304,0.59299 0.69563,0.74598 0.78262,1.44966 0.0444,0.3591 0.0924,0.71868 0.10676,0.79907 0.0143,0.0804 -0.0326,0.34738 -0.10428,0.59331 z"
       id="path2068" />
    <path
       style="fill:#b5a7a0;fill-opacity:1;stroke:#000000;stroke-width:0.0197626;stroke-linecap:round;stroke-linejoin:round;stroke-miterlimit:4;stroke-dasharray:none;stroke-opacity:1"
       d="m 115.05249,139.45693 c -0.044,0.0804 -0.0828,0.27771 -0.0862,0.43849 l -0.006,0.29233 -0.68624,0.0113 c -0.37743,0.006 -1.09017,0.0346 -1.58386,0.063 -0.73461,0.0423 -1.00798,0.0273 -1.50531,-0.0826 -0.92432,-0.20417 -2.54636,-0.16829 -3.52456,0.078 -0.97769,0.24612 -2.2619,0.25904 -3.23898,0.0326 -0.57001,-0.13211 -0.7977,-0.14671 -1.63352,-0.10469 -0.53416,0.0269 -1.34731,0.1127 -1.807,0.19077 -0.45969,0.0781 -0.8522,0.12839 -0.87226,0.11184 -0.0759,-0.0627 0.15816,-0.8782 0.28539,-0.99423 0.19377,-0.17672 0.16625,-0.33035 -0.14575,-0.81347 -0.15335,-0.23747 -0.26293,-0.44416 -0.24351,-0.45931 0.0194,-0.0152 0.28549,-0.11404 0.59125,-0.21974 0.53025,-0.1833 0.59014,-0.18868 1.2962,-0.11626 0.40715,0.0418 0.92722,0.12235 1.1557,0.17911 l 0.41543,0.10318 0.25066,-0.23154 0.25067,-0.23154 1.00405,-0.01 c 0.76024,-0.007 1.1574,0.0258 1.63555,0.13607 0.51979,0.11986 0.71877,0.13321 1.12485,0.0755 0.35757,-0.0508 0.64682,-0.0436 1.05091,0.0263 0.30666,0.053 0.73687,0.0971 0.95602,0.0979 0.34852,10e-4 0.43177,-0.031 0.66411,-0.25773 l 0.26564,-0.25925 1.07188,-0.0437 1.07188,-0.0437 0.0559,0.18378 c 0.0481,0.1581 0.12102,0.19072 0.52198,0.23343 1.18854,0.1266 1.61355,0.39366 1.69599,1.06567 0.0271,0.22107 0.0133,0.46772 -0.0306,0.54811 z"
       id="path2074" />
    <path
       style="fill:#afa7a3;fill-opacity:1;stroke:none;stroke-width:0.0649999;stroke-linecap:butt;stroke-linejoin:miter;stroke-miterlimit:4;stroke-dasharray:none;stroke-opacity:1"
       d="m 100.82011,133.62555 0.57508,0.51975 0.47258,-0.0604 0.52896,-0.39261 -0.33252,-0.78812 z"
       id="path2078-1"
       inkscape:transform-center-x="6.7931653"
       inkscape:transform-center-y="5.2728937" />
    <path
       style="fill:#b8b0ab;fill-opacity:1;stroke:none;stroke-width:0.00755589;stroke-linecap:round;stroke-linejoin:round;stroke-miterlimit:4;stroke-dasharray:none;stroke-opacity:1"
       d="m 113.86281,133.54135 c -0.29826,-0.15153 -0.68718,-0.34414 -0.74304,-0.36801 -0.0579,-0.0247 -0.059,0.004 -0.0243,0.69015 l 0.0362,0.71598 0.26125,0.008 c 0.14368,0.004 0.26845,2.5e-4 0.27723,-0.009 0.0136,-0.0138 0.24363,-0.70977 0.29982,-0.90736 0.0153,-0.0539 -0.004,-0.0773 -0.10714,-0.1297 z"
       id="path2092-2"
       inkscape:transform-center-x="-9.3981461"
       inkscape:transform-center-y="5.0251981" />
    <path
       style="color:#000000;font-style:normal;font-variant:normal;font-weight:normal;font-stretch:normal;font-size:medium;line-height:normal;font-family:sans-serif;font-variant-ligatures:normal;font-variant-position:normal;font-variant-caps:normal;font-variant-numeric:normal;font-variant-alternates:normal;font-variant-east-asian:normal;font-feature-settings:normal;font-variation-settings:normal;text-indent:0;text-align:start;text-decoration:none;text-decoration-line:none;text-decoration-style:solid;text-decoration-color:#000000;letter-spacing:normal;word-spacing:normal;text-transform:none;writing-mode:lr-tb;direction:ltr;text-orientation:mixed;dominant-baseline:auto;baseline-shift:baseline;text-anchor:start;white-space:normal;shape-padding:0;shape-margin:0;inline-size:0;clip-rule:nonzero;display:inline;overflow:visible;visibility:visible;opacity:1;isolation:auto;mix-blend-mode:normal;color-interpolation:sRGB;color-interpolation-filters:linearRGB;solid-color:#000000;solid-opacity:1;vector-effect:none;fill:#b4a33e;fill-opacity:1;fill-rule:nonzero;stroke:#090803;stroke-width:0.0724017;stroke-linecap:butt;stroke-linejoin:miter;stroke-miterlimit:4;stroke-dasharray:none;stroke-dashoffset:0;stroke-opacity:1;color-rendering:auto;image-rendering:auto;shape-rendering:auto;text-rendering:auto;enable-background:accumulate;stop-color:#000000;stop-opacity:1"
       d="m 98.793611,122.21454 -0.137605,0.17651 c 0,0 0.412817,0.17688 0.942599,0.68428 0.481625,0.4493 0.983885,1.28043 1.376055,2.34054 -0.34401,-0.33317 -0.71555,-0.58158 -1.100843,-0.74712 -0.804994,-0.34507 -1.575587,-0.3893 -1.575587,-0.3893 l -0.02339,0.2031 c 0,0 0.70867,0.0424 1.458622,0.36269 0.619218,0.26932 1.197168,0.80343 1.465498,1.61034 -0.34401,-0.32764 -0.61923,-0.69727 -0.98388,-0.80517 -0.550421,-0.15859 -0.976999,-0.14506 -0.976999,-0.14506 l 0.01376,0.20551 c 0,0 0.412817,-0.013 0.860029,0.12815 0.48163,0.14116 0.99765,0.42855 1.28662,1.05906 l 0.1376,-0.0314 h 0.003 l 0.1376,0.0169 c 0,0 0.13761,-0.57264 0.41282,-1.12676 0.13761,-0.27706 0.27521,-0.54852 0.41282,-0.73505 0.0688,-0.0932 0.1376,-0.1649 0.27521,-0.20551 0.0688,-0.0407 0.1376,-0.0527 0.20641,-0.0435 l 0.0495,-0.20068 c -0.13761,-0.0201 -0.27522,0.014 -0.41282,0.0774 -0.13761,0.0634 -0.20641,0.15426 -0.34402,0.26114 -0.2064,0.21377 -0.34401,0.49748 -0.48162,0.78341 -0.0688,0.18216 -0.0688,0.20238 -0.1376,0.36753 -0.13761,-1.63881 0.34401,-2.90153 0.34401,-2.90153 l -0.27521,-0.0749 c 0,0 -0.34401,1.10286 -0.34401,2.51705 -0.41282,-1.26992 -1.02517,-2.13337 -1.561827,-2.65004 -0.560744,-0.53082 -1.027228,-0.73747 -1.027228,-0.73747 z m 2.318659,3.44313 c 0.009,0.0294 0.0268,0.0305 0.0358,0.0604 l 0.20641,-0.0363 c 6.8e-4,0.19487 -0.02,0.35307 0.003,0.56338 -0.0688,-0.20158 -0.13761,-0.42593 -0.27521,-0.58755 z"
       id="path3647" />
  </g>
</svg>
