<?xml version="1.0" encoding="UTF-8" standalone="no"?>
<svg
   xmlns:dc="http://purl.org/dc/elements/1.1/"
   xmlns:cc="http://creativecommons.org/ns#"
   xmlns:rdf="http://www.w3.org/1999/02/22-rdf-syntax-ns#"
   xmlns:svg="http://www.w3.org/2000/svg"
   xmlns="http://www.w3.org/2000/svg"
   xmlns:sodipodi="http://sodipodi.sourceforge.net/DTD/sodipodi-0.dtd"
   xmlns:inkscape="http://www.inkscape.org/namespaces/inkscape"
   width="21.84329mm"
   height="21.84329mm"
   viewBox="0 0 21.84329 21.84329"
   version="1.1"
   id="svg2126"
   inkscape:version="1.0.1 (3bc2e813f5, 2020-09-07)"
   sodipodi:docname="hcanyon.svg">
  <defs
     id="defs2120" />
  <sodipodi:namedview
     id="base"
     pagecolor="#ffffff"
     bordercolor="#666666"
     borderopacity="1.0"
     inkscape:pageopacity="0.0"
     inkscape:pageshadow="2"
     inkscape:zoom="3.959798"
     inkscape:cx="18.398346"
     inkscape:cy="58.135602"
     inkscape:document-units="mm"
     inkscape:current-layer="layer1"
     inkscape:document-rotation="0"
     showgrid="false"
     inkscape:window-width="1138"
     inkscape:window-height="987"
     inkscape:window-x="0"
     inkscape:window-y="0"
     inkscape:window-maximized="0" />
  <metadata
     id="metadata2123">
    <rdf:RDF>
      <cc:Work
         rdf:about="">
        <dc:format>image/svg+xml</dc:format>
        <dc:type
           rdf:resource="http://purl.org/dc/dcmitype/StillImage" />
        <dc:title />
      </cc:Work>
    </rdf:RDF>
  </metadata>
  <g
     inkscape:label="Слой 1"
     inkscape:groupmode="layer"
     id="layer1"
     transform="translate(-97.179544,-120.61407)">
    <path
       style="fill:#534c48;fill-opacity:1;stroke:#000000;stroke-width:0.0179539;stroke-linecap:round;stroke-linejoin:round;stroke-miterlimit:4;stroke-dasharray:none;stroke-opacity:1"
       d="m 97.783696,123.10508 c 0.07168,-0.24593 0.154179,-0.71652 0.183323,-1.04576 l 0.05299,-0.59863 0.74932,0.0502 c 0.650597,0.0436 0.810823,0.03 1.216124,-0.10295 0.256737,-0.0842 0.614797,-0.18477 0.795667,-0.22343 0.49585,-0.10598 1.68891,0.0161 2.35087,0.24061 0.93581,0.31734 1.87574,0.4446 2.57402,0.34851 0.32602,-0.0449 0.82823,-0.0987 1.11601,-0.11971 0.38757,-0.0283 0.77108,-0.13292 1.47909,-0.40366 l 0.95585,-0.36551 h 1.22107 1.22107 l 0.99046,0.3381 0.99045,0.3381 1.2371,-0.0916 c 0.9757,-0.0722 1.50846,-0.15626 2.52132,-0.39771 0.70631,-0.16837 1.29468,-0.28078 1.30748,-0.24979 0.048,0.1163 -0.2164,2.00057 -0.28409,2.02432 -0.41943,0.14719 -0.38373,0.83341 0.0995,1.91297 0.18919,0.42264 0.34377,0.80084 0.34351,0.84043 -5.1e-4,0.0755 -1.03829,0.67803 -1.43801,0.83485 -0.35125,0.1378 -1.86408,-0.0749 -2.76479,-0.38871 l -0.69927,-0.24364 -0.17629,0.30082 c -0.097,0.16545 -0.28912,0.41017 -0.42703,0.54384 l -0.25074,0.24303 -0.54668,-0.0919 c -0.40666,-0.0683 -0.73172,-0.0731 -1.26907,-0.0186 l -0.72239,0.0733 -0.93455,-0.32624 -0.93455,-0.32624 -0.72757,0.1451 -0.72757,0.14509 -0.60341,-0.17905 c -0.34809,-0.10329 -0.88171,-0.1949 -1.26114,-0.21651 -0.59753,-0.034 -0.67613,-0.0229 -0.85871,0.1221 -0.11053,0.0878 -0.20097,0.20814 -0.20097,0.26751 0,0.20485 -0.2089,0.51101 -0.41474,0.60784 -0.18958,0.0892 -2.84297,0.31284 -2.95892,0.2494 -0.0267,-0.0146 -0.0694,-0.15033 -0.0949,-0.30167 -0.0256,-0.15134 -0.0706,-0.31417 -0.10005,-0.36183 -0.0295,-0.0477 -0.47797,-0.16966 -0.996694,-0.27109 -0.883409,-0.17274 -0.961167,-0.20187 -1.227977,-0.45995 -0.613039,-0.59299 -0.695638,-0.74598 -0.782621,-1.44966 -0.04439,-0.3591 -0.09243,-0.71868 -0.106762,-0.79907 -0.01433,-0.0804 0.0326,-0.34738 0.104281,-0.59331 z"
       id="path2068" />
    <path
       style="fill:#aa9b94;fill-opacity:1;stroke:#000000;stroke-width:0.0197626;stroke-linecap:round;stroke-linejoin:round;stroke-miterlimit:4;stroke-dasharray:none;stroke-opacity:1"
       d="m 101.6627,123.47914 c 0.044,-0.0804 0.0828,-0.27771 0.0862,-0.43849 l 0.006,-0.29233 0.68625,-0.0113 c 0.37743,-0.006 1.09017,-0.0346 1.58386,-0.063 0.73461,-0.0423 1.00798,-0.0273 1.50531,0.0826 0.92431,0.20417 2.54635,0.16829 3.52455,-0.078 0.97769,-0.24612 2.26191,-0.25904 3.23899,-0.0326 0.57,0.13211 0.7977,0.14671 1.63352,0.10469 0.53416,-0.0269 1.34731,-0.1127 1.80699,-0.19077 0.45969,-0.0781 0.85221,-0.12839 0.87226,-0.11184 0.0759,0.0627 -0.15815,0.8782 -0.28538,0.99423 -0.19377,0.17672 -0.16625,0.33035 0.14575,0.81347 0.15335,0.23747 0.26293,0.44416 0.2435,0.45931 -0.0194,0.0152 -0.28548,0.11404 -0.59125,0.21974 -0.53024,0.1833 -0.59013,0.18868 -1.2962,0.11626 -0.40715,-0.0418 -0.92721,-0.12235 -1.1557,-0.17911 l -0.41542,-0.10318 -0.25067,0.23154 -0.25066,0.23154 -1.00406,0.01 c -0.76023,0.007 -1.1574,-0.0258 -1.63555,-0.13607 -0.51979,-0.11986 -0.71876,-0.13321 -1.12485,-0.0755 -0.35756,0.0508 -0.64681,0.0436 -1.05091,-0.0263 -0.30665,-0.053 -0.73686,-0.0971 -0.95602,-0.0979 -0.34851,-0.001 -0.43176,0.031 -0.6641,0.25773 l -0.26565,0.25925 -1.07187,0.0437 -1.07188,0.0437 -0.0559,-0.18378 c -0.0481,-0.1581 -0.12103,-0.19072 -0.52198,-0.23343 -1.18855,-0.1266 -1.61356,-0.39366 -1.69599,-1.06567 -0.0271,-0.22107 -0.0133,-0.46772 0.0306,-0.54811 z"
       id="path2074" />
    <path
       style="fill:#afa7a4;fill-opacity:1;stroke:none;stroke-width:0.0649999;stroke-linecap:butt;stroke-linejoin:miter;stroke-miterlimit:4;stroke-dasharray:none;stroke-opacity:1"
       d="m 98.414684,132.48965 0.57508,0.51975 0.472577,-0.0604 0.52896,-0.39261 -0.33252,-0.78812 z"
       id="path2078-1"
       inkscape:transform-center-x="6.7931653"
       inkscape:transform-center-y="5.2728937" />
    <path
       style="fill:#998e87;fill-opacity:1;stroke:none;stroke-width:0.00755589;stroke-linecap:round;stroke-linejoin:round;stroke-miterlimit:4;stroke-dasharray:none;stroke-opacity:1"
       d="m 110.58876,134.87769 c -0.29826,-0.15153 -0.68718,-0.34414 -0.74304,-0.36801 -0.0579,-0.0247 -0.059,0.004 -0.0243,0.69015 l 0.0362,0.71598 0.26125,0.008 c 0.14368,0.004 0.26845,2.5e-4 0.27723,-0.009 0.0136,-0.0138 0.24363,-0.70977 0.29982,-0.90736 0.0153,-0.0539 -0.004,-0.0773 -0.10714,-0.1297 z"
       id="path2092-2"
       inkscape:transform-center-x="-9.3981461"
       inkscape:transform-center-y="5.0251981" />
    <path
       style="fill:#534c48;fill-opacity:1;stroke:#000000;stroke-width:0.0156734;stroke-linecap:round;stroke-linejoin:round;stroke-miterlimit:4;stroke-dasharray:none;stroke-opacity:1"
       d="m 117.85573,141.79825 c -0.92903,-0.0215 -0.99484,-0.0154 -1.6215,0.14885 -0.35925,0.0942 -0.7618,0.17122 -0.89455,0.17122 -0.13276,0 -0.72677,-0.14252 -1.32003,-0.3167 l -1.07865,-0.31671 -1.20585,-0.0202 -1.20584,-0.0202 -0.68728,0.37304 c -0.93573,0.50789 -2.123,1.0508 -2.58505,1.18208 -0.30353,0.0862 -0.45662,0.099 -0.74716,0.0625 -0.66337,-0.0835 -1.73984,-0.0581 -2.48477,0.0588 -0.3907,0.0613 -0.75204,0.11139 -0.80297,0.11139 -0.0509,0 -0.47815,-0.22725 -0.94935,-0.50499 -0.4712,-0.27775 -0.92742,-0.52705 -1.01383,-0.554 -0.0864,-0.0269 -0.61752,-0.10112 -1.18025,-0.16483 -0.562727,-0.0637 -1.080266,-0.12526 -1.150087,-0.13679 -0.08622,-0.0142 -0.283407,0.12034 -0.61469,0.41951 -0.268259,0.24226 -0.500888,0.43046 -0.516953,0.41821 -0.01606,-0.0122 0.0076,-0.44471 0.05257,-0.96105 l 0.08177,-0.93879 c -1.200759,-1.85898 0.73077,-1.03602 -0.613771,-2.50626 l 0.335837,-0.47341 0.335837,-0.47341 0.359434,0.0172 c 0.494819,0.0237 2.810753,-0.28807 3.720353,-0.50085 l 0.74791,-0.17496 1.01542,0.31349 c 1.14673,0.35403 1.978,0.50648 2.56792,0.47097 0.22343,-0.0135 0.80768,-0.13737 1.31547,-0.27899 0.50243,-0.14014 1.11084,-0.28149 1.35201,-0.31412 0.84007,-0.11368 2.85782,-0.2307 3.96256,-0.22983 1.05228,8.1e-4 1.14485,0.01 1.71314,0.16797 0.53913,0.14995 0.68821,0.16709 1.45353,0.16709 0.7898,0 0.87274,-0.0103 1.12282,-0.13965 0.14851,-0.0768 0.39975,-0.16186 0.55831,-0.18901 l 0.28828,-0.0494 v 0.61188 c 0,0.54958 -0.0273,0.6779 -0.26801,1.26039 l -0.26801,0.64851 0.20046,0.78048 c 0.3441,1.33979 0.30824,1.26126 0.66893,1.4645 0.21993,0.12392 0.32437,0.22394 0.32437,0.31063 v 0.12786 z"
       id="path2070"
       sodipodi:nodetypes="sssscccssssssssssssccccsscssssccscscsscssscs" />
    <path
       style="fill:#a69c96;fill-opacity:1;stroke:#000000;stroke-width:0.0156734;stroke-linecap:round;stroke-linejoin:round;stroke-miterlimit:4;stroke-dasharray:none;stroke-opacity:1"
       d="m 114.76803,140.55584 c -0.44214,0.003 -0.95158,0.0317 -1.13208,0.0634 -0.49265,0.0865 -0.90889,0.0723 -1.73483,-0.0591 -0.5964,-0.0949 -0.93624,-0.11497 -1.68087,-0.0994 -0.90886,0.019 -0.95919,0.0267 -1.91993,0.29551 l -0.9866,1.08252 -1.02314,0.005 c -0.56273,0.003 -1.28624,0.0232 -1.60779,0.0457 -0.56822,0.0397 -0.6052,0.0346 -1.31547,-0.18093 -0.63983,-0.19417 -0.83286,-1.03315 -1.55046,-1.06708 l -0.81964,-0.0387 -0.36903,0.17305 c -0.20297,0.0952 -0.37936,0.17305 -0.39199,0.17305 -0.0126,0 0.006,-0.16918 0.0423,-0.37594 0.0558,-0.32148 0.10286,-0.40549 0.32486,-0.57984 l 0.25962,-0.20389 -0.44697,-0.26453 c -0.24583,-0.14549 -0.446965,-0.27792 -0.446965,-0.29431 0,-0.0164 0.08836,-0.10008 0.196375,-0.186 0.17245,-0.13716 0.25037,-0.15634 0.63946,-0.1573 0.53759,-0.002 2.38037,-0.14563 2.772,-0.21705 0.21984,-0.0401 0.45525,-0.0216 1.05968,0.0832 1.18966,0.20627 1.79919,0.22454 2.75026,0.0825 1.30083,-0.19431 4.20346,-1.09664 5.01438,-0.97201 0.60401,0.0928 1.66582,0.10042 1.99236,0.0143 0.15578,-0.0411 0.36133,-0.0748 0.45676,-0.0748 0.15052,0 0.17352,0.0266 0.17352,0.20064 0,0.11533 -0.0848,1.12216 -0.19942,1.27755 l -0.19941,0.27035 0.18044,0.39657 c 0.19599,0.43073 0.22123,0.45578 0.54725,0.54318 0.18001,0.0482 0.0754,0.0598 -0.58465,0.0645 z"
       id="path2072"
       sodipodi:nodetypes="ccscccccccccsscccscccccscssscsccc" />
    <path
       style="color:#000000;font-style:normal;font-variant:normal;font-weight:normal;font-stretch:normal;font-size:medium;line-height:normal;font-family:sans-serif;font-variant-ligatures:normal;font-variant-position:normal;font-variant-caps:normal;font-variant-numeric:normal;font-variant-alternates:normal;font-variant-east-asian:normal;font-feature-settings:normal;font-variation-settings:normal;text-indent:0;text-align:start;text-decoration:none;text-decoration-line:none;text-decoration-style:solid;text-decoration-color:#000000;letter-spacing:normal;word-spacing:normal;text-transform:none;writing-mode:lr-tb;direction:ltr;text-orientation:mixed;dominant-baseline:auto;baseline-shift:baseline;text-anchor:start;white-space:normal;shape-padding:0;shape-margin:0;inline-size:0;clip-rule:nonzero;display:inline;overflow:visible;visibility:visible;opacity:1;isolation:auto;mix-blend-mode:normal;color-interpolation:sRGB;color-interpolation-filters:linearRGB;solid-color:#000000;solid-opacity:1;vector-effect:none;fill:#b4a33e;fill-opacity:1;fill-rule:nonzero;stroke:#090803;stroke-width:0.0720167;stroke-linecap:butt;stroke-linejoin:miter;stroke-miterlimit:4;stroke-dasharray:none;stroke-dashoffset:0;stroke-opacity:1;color-rendering:auto;image-rendering:auto;shape-rendering:auto;text-rendering:auto;enable-background:accumulate;stop-color:#000000;stop-opacity:1"
       d="m 112.36861,128.06364 -0.1431,0.17358 c 0,0 0.41404,0.17394 0.94523,0.67291 0.4704,0.44184 0.98769,1.25916 1.38457,2.30165 -0.3249,-0.32763 -0.71684,-0.57192 -1.105,-0.73471 -0.80901,-0.33933 -1.58426,-0.38283 -1.58426,-0.38283 l -0.0233,0.19973 c 0,0 0.71352,0.0417 1.46446,0.35666 0.63142,0.26485 1.20158,0.79008 1.47442,1.58358 -0.31671,-0.32219 -0.62985,-0.68568 -0.98851,-0.79179 -0.52712,-0.15595 -0.98184,-0.14265 -0.98184,-0.14265 l 0.0133,0.2021 c 0,0 0.39283,-0.0128 0.86203,0.12602 0.46922,0.13881 1.00542,0.42143 1.29471,1.04146 l 0.1298,-0.0309 h 0.003 l 0.13646,0.0166 c 0,0 0.14177,-0.56312 0.38942,-1.10803 0.12382,-0.27246 0.27736,-0.53941 0.44265,-0.72284 0.0827,-0.0917 0.16801,-0.16216 0.24629,-0.2021 0.0783,-0.04 0.14035,-0.0518 0.20969,-0.0428 l 0.0499,-0.19735 c -0.15207,-0.0198 -0.30065,0.0138 -0.4227,0.0761 -0.12204,0.0623 -0.22478,0.15169 -0.31951,0.2568 -0.18946,0.21022 -0.34484,0.48921 -0.47261,0.77039 -0.0814,0.17913 -0.0691,0.19902 -0.12648,0.36142 -0.1299,-1.61158 0.35944,-2.85331 0.35946,-2.85331 l -0.25962,-0.0737 c 0,0 -0.36728,1.08454 -0.37941,2.47523 -0.4084,-1.24882 -1.03337,-2.09792 -1.57428,-2.60601 -0.55574,-0.522 -1.02513,-0.72522 -1.02513,-0.72522 z m 2.32981,3.38592 c 0.009,0.0289 0.0275,0.03 0.0366,0.0594 l 0.23298,-0.0357 c 10e-4,0.19163 -0.0201,0.34721 0.003,0.55402 -0.0867,-0.19823 -0.14568,-0.41885 -0.27292,-0.57779 z"
       id="path3647" />
  </g>
</svg>
