<?xml version="1.0" encoding="UTF-8" standalone="no"?>
<svg
   xmlns:dc="http://purl.org/dc/elements/1.1/"
   xmlns:cc="http://creativecommons.org/ns#"
   xmlns:rdf="http://www.w3.org/1999/02/22-rdf-syntax-ns#"
   xmlns:svg="http://www.w3.org/2000/svg"
   xmlns="http://www.w3.org/2000/svg"
   xmlns:sodipodi="http://sodipodi.sourceforge.net/DTD/sodipodi-0.dtd"
   xmlns:inkscape="http://www.inkscape.org/namespaces/inkscape"
   width="21.84329mm"
   height="21.84329mm"
   viewBox="0 0 21.84329 21.84329"
   version="1.1"
   id="svg2126"
   inkscape:version="1.0.1 (3bc2e813f5, 2020-09-07)"
   sodipodi:docname="lcanyon.svg">
  <defs
     id="defs2120" />
  <sodipodi:namedview
     id="base"
     pagecolor="#ffffff"
     bordercolor="#666666"
     borderopacity="1.0"
     inkscape:pageopacity="0.0"
     inkscape:pageshadow="2"
     inkscape:zoom="3.959798"
     inkscape:cx="51.078125"
     inkscape:cy="74.627322"
     inkscape:document-units="mm"
     inkscape:current-layer="layer1"
     inkscape:document-rotation="0"
     showgrid="false"
     inkscape:window-width="1148"
     inkscape:window-height="987"
     inkscape:window-x="0"
     inkscape:window-y="0"
     inkscape:window-maximized="0" />
  <metadata
     id="metadata2123">
    <rdf:RDF>
      <cc:Work
         rdf:about="">
        <dc:format>image/svg+xml</dc:format>
        <dc:type
           rdf:resource="http://purl.org/dc/dcmitype/StillImage" />
        <dc:title />
      </cc:Work>
    </rdf:RDF>
  </metadata>
  <g
     inkscape:label="Слой 1"
     inkscape:groupmode="layer"
     id="layer1"
     transform="translate(-97.179544,-120.61407)">
    <path
       style="fill:#534c48;fill-opacity:1;stroke:#000000;stroke-width:0.0156734;stroke-linecap:round;stroke-linejoin:round;stroke-miterlimit:4;stroke-dasharray:none;stroke-opacity:1"
       d="m 98.908436,121.86944 c 0.02146,0.92903 0.01542,0.99484 -0.148851,1.6215 -0.09417,0.35925 -0.171217,0.76179 -0.171217,0.89455 0,0.13276 0.142516,0.72677 0.316704,1.32003 l 0.316705,1.07865 0.02021,1.20585 0.02021,1.20584 -0.373038,0.68728 c -0.507886,0.93572 -1.050802,2.123 -1.182083,2.58504 -0.08624,0.30353 -0.09904,0.45663 -0.06247,0.74716 0.08351,0.66338 0.05806,1.73985 -0.05875,2.48477 -0.06126,0.3907 -0.11139,0.75204 -0.11139,0.80298 0,0.0509 0.227246,0.47814 0.504993,0.94934 0.277744,0.4712 0.52704,0.92743 0.553991,1.01384 0.02695,0.0864 0.101125,0.61752 0.164832,1.18025 0.06371,0.56272 0.125265,1.08026 0.13679,1.15008 0.01424,0.0862 -0.120337,0.28341 -0.419511,0.61469 -0.242259,0.26826 -0.430452,0.50089 -0.418209,0.51696 0.01224,0.0161 0.444714,-0.008 0.961049,-0.0526 l 0.938797,-0.0818 c 1.858982,1.20076 1.036022,-0.73077 2.506262,0.61377 l 0.47341,-0.33584 0.47341,-0.33584 -0.0172,-0.35943 c -0.0237,-0.49482 0.28807,-2.81075 0.50085,-3.72035 l 0.17496,-0.74791 -0.31349,-1.01542 c -0.35403,-1.14674 -0.50648,-1.978 -0.47097,-2.56792 0.0134,-0.22343 0.13737,-0.80769 0.27899,-1.31547 0.14014,-0.50244 0.28149,-1.11084 0.31412,-1.35201 0.11368,-0.84008 0.2307,-2.85782 0.22983,-3.96257 -8.1e-4,-1.05228 -0.01,-1.14485 -0.16797,-1.71313 -0.14995,-0.53913 -0.16709,-0.68821 -0.16709,-1.45354 0,-0.7898 0.0103,-0.87273 0.13965,-1.12281 0.0768,-0.14852 0.16186,-0.39976 0.18901,-0.55831 l 0.0494,-0.28829 h -0.61188 c -0.54958,0 -0.55978,-0.50423 -1.14227,-0.26352 l -1.60617,-0.0151 c 0,0 -1.202202,0.30597 -1.405444,-0.0547 -0.123924,-0.21993 -0.22394,-0.32437 -0.310632,-0.32437 h -0.12786 z"
       id="path2070"
       sodipodi:nodetypes="sssscccssssssssssssccccsscssssccscscsccsscs" />
    <path
       style="fill:#a8a09a;fill-opacity:1;stroke:#000000;stroke-width:0.0156734;stroke-linecap:round;stroke-linejoin:round;stroke-miterlimit:4;stroke-dasharray:none;stroke-opacity:1"
       d="m 99.938238,123.57515 c -0.003,0.44214 -0.18525,1.51855 -0.21695,1.69906 -0.0865,0.49264 0.293862,1.7239 0.425262,2.54983 0.0949,0.59641 0.11497,0.93624 0.0994,1.68088 -0.019,0.90886 -0.0268,0.95919 -0.295512,1.91992 l -1.082517,0.98661 -0.0046,1.02314 c -0.003,0.56272 -0.02324,1.28623 -0.04573,1.60779 -0.0397,0.56821 -0.0346,0.6052 0.180936,1.31547 0.194173,0.63983 1.033153,0.83286 1.067083,1.55045 l 0.0387,0.81964 -0.173052,0.36904 c -0.0952,0.20296 -0.17305,0.37936 -0.17305,0.39198 0,0.0126 0.16918,-0.006 0.375942,-0.0423 l 1.52857,0.11308 c 0.13716,-0.17244 0.15634,-0.25037 0.1573,-0.63946 0.002,-0.53759 0.14563,-2.38037 0.21705,-2.77199 0.0401,-0.21984 0.0216,-0.45525 -0.0832,-1.05969 -0.20627,-1.18965 -0.22454,-1.79918 -0.0825,-2.75025 0.19431,-1.30084 1.09664,-4.20347 0.97201,-5.01438 -0.0928,-0.60402 -0.10042,-1.66583 -0.0142,-1.99236 0.0411,-0.15579 -0.13781,-1.74331 -0.13781,-1.83874 0,-0.15053 -0.0266,-0.17352 -0.20064,-0.17352 -0.11533,0 -1.12216,0.0848 -1.27755,0.19942 l -0.27035,0.19941 -0.39657,-0.18044 c -0.43073,-0.19598 -0.45578,-0.22123 -0.54318,-0.54726 -0.0482,-0.18001 -0.0598,-0.0754 -0.0645,0.58466 z"
       id="path2072"
       sodipodi:nodetypes="ccscccccccccsccccccscssscsccc" />
    <path
       style="fill:#a2948c;fill-opacity:1;stroke:none;stroke-width:0.00897694;stroke-linecap:round;stroke-linejoin:round;stroke-miterlimit:4;stroke-dasharray:none;stroke-opacity:1"
       d="m 105.5629,134.89894 c -0.16077,-0.0993 -0.30487,-0.18516 -0.32022,-0.19089 -0.0153,-0.006 0.002,-0.15832 0.0379,-0.33911 l 0.0658,-0.3287 0.14477,-0.044 c 0.0796,-0.0242 0.21134,-0.061 0.2927,-0.0816 0.14352,-0.0365 0.15047,-0.0455 0.23394,-0.30312 0.0473,-0.14603 0.0925,-0.24906 0.10039,-0.22896 0.008,0.0201 0.10167,0.27497 0.20838,0.56638 l 0.19401,0.52984 -0.31075,0.29233 c -0.17092,0.16078 -0.32063,0.29594 -0.3327,0.30035 -0.0121,0.004 -0.1535,-0.0732 -0.31428,-0.17246 z"
       id="path2088" />
    <path
       style="fill:#9b8f8a;fill-opacity:1;stroke:none;stroke-width:0.00897694;stroke-linecap:round;stroke-linejoin:round;stroke-miterlimit:4;stroke-dasharray:none;stroke-opacity:1"
       d="m 98.051127,128.86945 c -0.10019,-0.12561 -0.19334,-0.24698 -0.207,-0.26971 -0.0157,-0.0261 0.17037,-0.15062 0.50504,-0.338 0.29142,-0.16317 0.53485,-0.29667 0.54095,-0.29667 0.006,0 -0.0181,0.24254 -0.0538,0.53897 -0.0357,0.29644 -0.0656,0.55131 -0.0665,0.56639 -7.9e-4,0.0151 -0.12194,0.0274 -0.26906,0.0274 h -0.2675 z"
       id="path2090" />
    <path
       style="fill:#a19893;fill-opacity:1;stroke:none;stroke-width:0.00897694;stroke-linecap:round;stroke-linejoin:round;stroke-miterlimit:4;stroke-dasharray:none;stroke-opacity:1"
       d="m 116.0402,139.59514 c -0.16077,-0.0993 -0.30487,-0.18516 -0.32022,-0.19089 -0.0153,-0.006 0.002,-0.15832 0.0379,-0.33911 l 0.0658,-0.3287 0.14477,-0.044 c 0.0796,-0.0242 0.21134,-0.061 0.2927,-0.0816 0.14352,-0.0365 0.15047,-0.0455 0.23394,-0.30312 0.0473,-0.14603 0.0925,-0.24906 0.10039,-0.22896 0.008,0.0201 0.10167,0.27497 0.20838,0.56638 l 0.19401,0.52984 -0.31075,0.29233 c -0.17092,0.16078 -0.32063,0.29594 -0.3327,0.30035 -0.0121,0.004 -0.1535,-0.0732 -0.31428,-0.17246 z"
       id="path2088-1" />
    <path
       style="color:#000000;font-style:normal;font-variant:normal;font-weight:normal;font-stretch:normal;font-size:medium;line-height:normal;font-family:sans-serif;font-variant-ligatures:normal;font-variant-position:normal;font-variant-caps:normal;font-variant-numeric:normal;font-variant-alternates:normal;font-variant-east-asian:normal;font-feature-settings:normal;font-variation-settings:normal;text-indent:0;text-align:start;text-decoration:none;text-decoration-line:none;text-decoration-style:solid;text-decoration-color:#000000;letter-spacing:normal;word-spacing:normal;text-transform:none;writing-mode:lr-tb;direction:ltr;text-orientation:mixed;dominant-baseline:auto;baseline-shift:baseline;text-anchor:start;white-space:normal;shape-padding:0;shape-margin:0;inline-size:0;clip-rule:nonzero;display:inline;overflow:visible;visibility:visible;opacity:1;isolation:auto;mix-blend-mode:normal;color-interpolation:sRGB;color-interpolation-filters:linearRGB;solid-color:#000000;solid-opacity:1;vector-effect:none;fill:#b4a33e;fill-opacity:1;fill-rule:nonzero;stroke:#090803;stroke-width:0.0720167;stroke-linecap:butt;stroke-linejoin:miter;stroke-miterlimit:4;stroke-dasharray:none;stroke-dashoffset:0;stroke-opacity:1;color-rendering:auto;image-rendering:auto;shape-rendering:auto;text-rendering:auto;enable-background:accumulate;stop-color:#000000;stop-opacity:1"
       d="m 113.31231,123.9457 -0.13459,0.18025 c 0,0 0.42192,0.15384 0.97648,0.62671 0.49109,0.41872 0.39559,0.40842 0.84211,1.43063 -0.34027,-0.31163 -0.74349,-0.5368 -1.13903,-0.68075 -0.82438,-0.30006 -1.60083,-0.30625 -1.60083,-0.30625 l -0.0137,0.20062 c 0,0 0.7147,0.007 1.47991,0.28587 0.64342,0.23419 0.95419,0.59361 1.40266,1.18098 -0.33183,-0.3066 -0.51591,-0.32471 -0.87926,-0.41346 -0.53401,-0.13044 -0.98756,-0.0953 -0.98756,-0.0953 l 0.023,0.20123 c 0,0 0.39176,-0.0317 0.86709,0.0844 0.47535,0.1161 1.02451,0.37263 1.34326,0.97804 l 0.12817,-0.0371 0.003,-1.4e-4 0.1371,0.01 c 0,0 0.11454,-0.56928 0.33571,-1.12546 0.11059,-0.2781 0.25112,-0.55212 0.4074,-0.74328 0.0782,-0.0956 0.16002,-0.17005 0.23629,-0.21371 0.0763,-0.0437 0.1377,-0.0585 0.20739,-0.0528 l 0.0404,-0.19952 c -0.15284,-0.0125 -0.29964,0.0282 -0.41855,0.0963 -0.11891,0.0681 -0.21723,0.16232 -0.3068,0.27186 -0.17914,0.21908 -0.32093,0.50522 -0.43504,0.79222 -0.0727,0.18283 -0.0594,0.20211 -0.10896,0.36708 -0.20721,-1.60348 0.22189,-2.86729 0.22191,-2.86729 l -0.26286,-0.0611 c 0,0 -0.31473,1.10094 -0.26001,2.4906 -0.46795,-1.22774 -0.48154,-1.24402 -1.04624,-1.72552 -0.58018,-0.49469 -1.0588,-0.67512 -1.0588,-0.67512 z"
       id="path3647"
       sodipodi:nodetypes="cccccccccccccccccsccccsscccccccc" />
  </g>
</svg>
