<?xml version="1.0" encoding="UTF-8" standalone="no"?>
<svg
   xmlns:dc="http://purl.org/dc/elements/1.1/"
   xmlns:cc="http://creativecommons.org/ns#"
   xmlns:rdf="http://www.w3.org/1999/02/22-rdf-syntax-ns#"
   xmlns:svg="http://www.w3.org/2000/svg"
   xmlns="http://www.w3.org/2000/svg"
   xmlns:sodipodi="http://sodipodi.sourceforge.net/DTD/sodipodi-0.dtd"
   xmlns:inkscape="http://www.inkscape.org/namespaces/inkscape"
   width="21.84329mm"
   height="21.84329mm"
   viewBox="0 0 21.84329 21.84329"
   version="1.1"
   id="svg2126"
   inkscape:version="1.0.1 (3bc2e813f5, 2020-09-07)"
   sodipodi:docname="rcanyon.svg">
  <defs
     id="defs2120" />
  <sodipodi:namedview
     id="base"
     pagecolor="#ffffff"
     bordercolor="#666666"
     borderopacity="1.0"
     inkscape:pageopacity="0.0"
     inkscape:pageshadow="2"
     inkscape:zoom="15.839192"
     inkscape:cx="70.135612"
     inkscape:cy="67.538419"
     inkscape:document-units="mm"
     inkscape:current-layer="layer1"
     inkscape:document-rotation="0"
     showgrid="false"
     inkscape:window-width="1137"
     inkscape:window-height="987"
     inkscape:window-x="0"
     inkscape:window-y="0"
     inkscape:window-maximized="0" />
  <metadata
     id="metadata2123">
    <rdf:RDF>
      <cc:Work
         rdf:about="">
        <dc:format>image/svg+xml</dc:format>
        <dc:type
           rdf:resource="http://purl.org/dc/dcmitype/StillImage" />
        <dc:title />
      </cc:Work>
    </rdf:RDF>
  </metadata>
  <g
     inkscape:label="Слой 1"
     inkscape:groupmode="layer"
     id="layer1"
     transform="translate(-97.179544,-120.61407)">
    <path
       style="fill:#534c48;fill-opacity:1;stroke:#000000;stroke-width:0.0156734;stroke-linecap:round;stroke-linejoin:round;stroke-miterlimit:4;stroke-dasharray:none;stroke-opacity:1"
       d="m 113.48895,141.38114 c 0.0215,-0.92903 0.0154,-0.99484 -0.14885,-1.6215 -0.0942,-0.35925 -0.17122,-0.76179 -0.17122,-0.89455 0,-0.13276 0.14252,-0.72677 0.3167,-1.32003 l 0.31671,-1.07865 0.0202,-1.20585 0.0202,-1.20584 -0.37304,-0.68728 c -0.50789,-0.93572 -1.0508,-2.123 -1.18208,-2.58504 -0.0862,-0.30353 -0.099,-0.45663 -0.0625,-0.74716 0.0835,-0.66338 0.0581,-1.73985 -0.0588,-2.48477 -0.0613,-0.3907 -0.11139,-0.75204 -0.11139,-0.80298 0,-0.0509 0.22725,-0.47814 0.50499,-0.94934 0.27775,-0.4712 0.52705,-0.92743 0.554,-1.01384 0.0269,-0.0864 0.10112,-0.61752 0.16483,-1.18025 0.0637,-0.56272 0.12526,-1.08026 0.13679,-1.15008 l 1.06212,-0.99725 c 1.85898,-1.20076 1.03602,0.73077 2.50626,-0.61377 l 0.47341,0.33584 0.47341,0.33584 -0.0172,0.35943 c -0.0237,0.49482 0.28807,2.81075 0.50085,3.72035 l 0.17496,0.74791 -0.31349,1.01542 c -0.35403,1.14674 -0.50648,1.978 -0.47097,2.56792 0.0135,0.22343 0.13737,0.80769 0.27899,1.31547 0.14014,0.50244 0.28149,1.11084 0.31412,1.35201 0.11368,0.84008 0.2307,2.85782 0.22983,3.96257 -8.1e-4,1.05228 -0.01,1.14485 -0.16797,1.71313 -0.14995,0.53913 -0.16709,0.68821 -0.16709,1.45354 0,0.7898 0.0103,0.87273 0.13965,1.12281 0.0768,0.14852 0.16186,0.39976 0.18901,0.55831 l 0.0494,0.28829 h -0.61188 c -0.54958,0 -0.6779,-0.0273 -1.26039,-0.26801 l -0.64851,-0.26801 -0.78048,0.20045 c -1.33979,0.34411 -1.26126,0.30824 -1.4645,0.66893 -0.24996,0.2496 -0.23207,-0.50929 -0.41607,-0.64402 z"
       id="path2070"
       sodipodi:nodetypes="cssscccsssssssscccccsscssssccscscsscscc" />
    <path
       style="fill:#a79d99;fill-opacity:1;stroke:#000000;stroke-width:0.0156734;stroke-linecap:round;stroke-linejoin:round;stroke-miterlimit:4;stroke-dasharray:none;stroke-opacity:1"
       d="m 114.73136,138.29345 c -0.003,-0.44215 -0.0317,-0.95159 -0.0634,-1.13209 -0.0865,-0.49264 -0.0723,-0.90889 0.0591,-1.73482 0.0949,-0.59641 0.11497,-0.93625 0.0994,-1.68088 -0.019,-0.90886 -0.0268,-0.95919 -0.29551,-1.91993 l -1.08252,-0.9866 -0.005,-1.02314 c -0.003,-0.56273 -0.0232,-1.28623 -0.0457,-1.60779 -0.0397,-0.56822 -0.0346,-0.6052 0.18093,-1.31547 0.19417,-0.63983 1.03315,-0.83286 1.06708,-1.55046 l 0.0387,-0.81964 -0.17305,-0.36903 c -0.0952,-0.20297 -0.17305,-0.37936 -0.17305,-0.39198 0.79129,-0.51699 1.14405,-0.25562 1.71851,-0.26716 0.0164,0 0.10008,0.0884 0.186,0.19637 0.13716,0.17245 0.15634,0.25038 0.1573,0.63947 0.002,0.53758 0.14563,2.38036 0.21705,2.77199 0.0401,0.21984 0.0216,0.45525 -0.0832,1.05968 -0.20627,1.18966 -0.22454,1.79919 -0.0825,2.75026 0.19431,1.30084 1.09664,4.20346 0.97201,5.01438 -0.0928,0.60402 -0.10042,1.66582 -0.0143,1.99236 0.0411,0.15579 0.0748,0.36133 0.0748,0.45676 0,0.15053 -0.0266,0.17352 -0.20064,0.17352 -0.74881,0.14536 -1.36191,1.8171 -2.48765,0.32886 -0.0482,0.18001 -0.0598,0.0754 -0.0645,-0.58465 z"
       id="path2072"
       sodipodi:nodetypes="ccsccccccccccccccccscscccc" />
    <path
       style="fill:#b3aaa7;fill-opacity:1;stroke:none;stroke-width:0.0649999;stroke-linecap:butt;stroke-linejoin:miter;stroke-miterlimit:4;stroke-dasharray:none;stroke-opacity:1"
       d="m 110.41818,123.64291 -0.54811,0.54811 0.0365,0.47503 0.36541,0.54811 0.8039,-0.29232 z"
       id="path2078" />
    <path
       style="fill:#bca599;fill-opacity:1;stroke:none;stroke-width:0.00897694;stroke-linecap:round;stroke-linejoin:round;stroke-miterlimit:4;stroke-dasharray:none;stroke-opacity:1"
       d="m 112.04523,135.10696 c -0.10019,-0.12561 -0.19334,-0.24698 -0.207,-0.26971 -0.0157,-0.0261 0.17037,-0.15062 0.50504,-0.338 0.29142,-0.16317 0.53485,-0.29667 0.54095,-0.29667 0.006,0 -0.0181,0.24254 -0.0538,0.53897 -0.0357,0.29644 -0.0656,0.55131 -0.0665,0.56639 -7.9e-4,0.0151 -0.12194,0.0274 -0.26906,0.0274 h -0.2675 z"
       id="path2090" />
    <path
       style="fill:#9c938f;fill-opacity:1;stroke:none;stroke-width:0.00755589;stroke-linecap:round;stroke-linejoin:round;stroke-miterlimit:4;stroke-dasharray:none;stroke-opacity:1"
       d="m 111.30191,141.04126 c -0.16639,-0.29023 -0.37839,-0.66893 -0.40504,-0.72352 -0.0276,-0.0566 10e-4,-0.0591 0.68804,-0.0591 h 0.71689 l 0.0207,0.26054 c 0.0114,0.14329 0.0138,0.26809 0.005,0.27733 -0.0131,0.0143 -0.69657,0.27915 -0.89107,0.34524 -0.0531,0.018 -0.0774,-6e-5 -0.13495,-0.10046 z"
       id="path2092" />
  </g>
</svg>
