<?xml version="1.0" encoding="UTF-8" standalone="no"?>
<svg
   xmlns:dc="http://purl.org/dc/elements/1.1/"
   xmlns:cc="http://creativecommons.org/ns#"
   xmlns:rdf="http://www.w3.org/1999/02/22-rdf-syntax-ns#"
   xmlns:svg="http://www.w3.org/2000/svg"
   xmlns="http://www.w3.org/2000/svg"
   xmlns:sodipodi="http://sodipodi.sourceforge.net/DTD/sodipodi-0.dtd"
   xmlns:inkscape="http://www.inkscape.org/namespaces/inkscape"
   width="21.84329mm"
   height="21.84329mm"
   viewBox="0 0 21.84329 21.84329"
   version="1.1"
   id="svg2126"
   inkscape:version="1.0.1 (3bc2e813f5, 2020-09-07)"
   sodipodi:docname="tcanyon.svg">
  <defs
     id="defs2120" />
  <sodipodi:namedview
     id="base"
     pagecolor="#ffffff"
     bordercolor="#666666"
     borderopacity="1.0"
     inkscape:pageopacity="0.0"
     inkscape:pageshadow="2"
     inkscape:zoom="5.6"
     inkscape:cx="45.51918"
     inkscape:cy="54.4665"
     inkscape:document-units="mm"
     inkscape:current-layer="layer1"
     inkscape:document-rotation="0"
     showgrid="false"
     inkscape:window-width="1166"
     inkscape:window-height="987"
     inkscape:window-x="0"
     inkscape:window-y="0"
     inkscape:window-maximized="0" />
  <metadata
     id="metadata2123">
    <rdf:RDF>
      <cc:Work
         rdf:about="">
        <dc:format>image/svg+xml</dc:format>
        <dc:type
           rdf:resource="http://purl.org/dc/dcmitype/StillImage" />
        <dc:title />
      </cc:Work>
    </rdf:RDF>
  </metadata>
  <g
     inkscape:label="Слой 1"
     inkscape:groupmode="layer"
     id="layer1"
     transform="translate(-97.179544,-120.61407)">
    <path
       style="fill:#534c48;fill-opacity:1;stroke:#000000;stroke-width:0.0179539;stroke-linecap:round;stroke-linejoin:round;stroke-miterlimit:4;stroke-dasharray:none;stroke-opacity:1"
       d="m 97.388159,122.79247 c 0.07168,-0.24593 0.154179,-0.71652 0.183323,-1.04576 l 0.05299,-0.59863 0.74932,0.0502 c 0.650597,0.0436 0.810823,0.03 1.216121,-0.10295 0.25674,-0.0842 0.614787,-0.18477 0.795667,-0.22343 0.49585,-0.10598 1.68891,0.0161 2.35087,0.24061 0.93581,0.31734 1.87574,0.4446 2.57402,0.34851 0.32602,-0.0449 0.82822,-0.0987 1.11601,-0.11971 0.38757,-0.0283 0.77107,-0.13292 1.47909,-0.40366 l 0.95584,-0.36551 h 1.22108 1.22107 l 0.99046,0.3381 0.99045,0.3381 1.2371,-0.0916 c 0.9757,-0.0722 1.50846,-0.15626 2.52131,-0.39771 0.70632,-0.16837 1.29469,-0.28078 1.30749,-0.24979 0.048,0.1163 -0.2164,2.00057 -0.28409,2.02432 -0.41943,0.14719 -0.38373,0.83341 0.0995,1.91297 0.18919,0.42264 0.34377,0.80084 0.3435,0.84043 -5e-4,0.0755 -1.03828,0.67803 -1.438,0.83485 -0.35125,0.1378 -1.86408,-0.0749 -2.76479,-0.38871 l -0.69927,-0.24364 -0.17629,0.30082 c -0.097,0.16545 -0.28912,0.41017 -0.42703,0.54384 l -0.25074,0.24303 -0.54668,-0.0919 c -0.40666,-0.0683 -0.73172,-0.0731 -1.26908,-0.0186 l -0.72238,0.0733 -0.93455,-0.32624 -0.93455,-0.32624 -0.72757,0.1451 -0.72757,0.14509 -0.60341,-0.17905 c -0.34809,-0.10329 -0.88171,-0.1949 -1.26114,-0.21651 -0.59753,-0.034 -0.67613,-0.0229 -0.85871,0.1221 -0.11053,0.0878 -0.20097,0.20814 -0.20097,0.26751 0,0.20485 -0.2089,0.51101 -0.41474,0.60784 -0.18959,0.0892 -2.84297,0.31284 -2.95892,0.2494 -0.0267,-0.0146 -0.0694,-0.15033 -0.0949,-0.30167 -0.0256,-0.15134 -0.0706,-0.31417 -0.10005,-0.36183 -0.0295,-0.0477 -0.477967,-0.16966 -0.996691,-0.27109 -0.883409,-0.17274 -0.961167,-0.20187 -1.227977,-0.45995 -0.613039,-0.59299 -0.695638,-0.74598 -0.782621,-1.44966 -0.04439,-0.3591 -0.09243,-0.71868 -0.106762,-0.79907 -0.01433,-0.0804 0.0326,-0.34738 0.104281,-0.59331 z"
       id="path2068" />
    <path
       style="fill:#a89f99;fill-opacity:1;stroke:#000000;stroke-width:0.0197626;stroke-linecap:round;stroke-linejoin:round;stroke-miterlimit:4;stroke-dasharray:none;stroke-opacity:1"
       d="m 101.26716,123.16653 c 0.044,-0.0804 0.0828,-0.27771 0.0862,-0.43849 l 0.006,-0.29233 0.68624,-0.0113 c 0.37744,-0.006 1.09018,-0.0346 1.58387,-0.063 0.73461,-0.0423 1.00797,-0.0273 1.50531,0.0826 0.92431,0.20417 2.54635,0.16829 3.52455,-0.078 0.97769,-0.24612 2.2619,-0.25904 3.23898,-0.0326 0.57001,0.13211 0.79771,0.14671 1.63353,0.10469 0.53416,-0.0269 1.3473,-0.1127 1.80699,-0.19077 0.45969,-0.0781 0.85221,-0.12839 0.87226,-0.11184 0.0759,0.0627 -0.15815,0.8782 -0.28538,0.99423 -0.19378,0.17672 -0.16625,0.33035 0.14574,0.81347 0.15336,0.23747 0.26293,0.44416 0.24351,0.45931 -0.0194,0.0152 -0.28548,0.11404 -0.59125,0.21974 -0.53024,0.1833 -0.59013,0.18868 -1.2962,0.11626 -0.40715,-0.0418 -0.92721,-0.12235 -1.1557,-0.17911 l -0.41542,-0.10318 -0.25067,0.23154 -0.25066,0.23154 -1.00406,0.01 c -0.76024,0.007 -1.1574,-0.0258 -1.63555,-0.13607 -0.51979,-0.11986 -0.71876,-0.13321 -1.12485,-0.0755 -0.35757,0.0508 -0.64681,0.0436 -1.05091,-0.0263 -0.30665,-0.053 -0.73686,-0.0971 -0.95602,-0.0979 -0.34851,-0.001 -0.43176,0.031 -0.6641,0.25773 l -0.26565,0.25925 -1.07188,0.0437 -1.07188,0.0437 -0.0559,-0.18378 c -0.0481,-0.1581 -0.12102,-0.19072 -0.52197,-0.23343 -1.18855,-0.1266 -1.61356,-0.39366 -1.69599,-1.06567 -0.0271,-0.22107 -0.0133,-0.46772 0.0307,-0.54811 z"
       id="path2074" />
    <path
       style="fill:#c1b7b4;fill-opacity:1;stroke:none;stroke-width:0.0649999;stroke-linecap:butt;stroke-linejoin:miter;stroke-miterlimit:4;stroke-dasharray:none;stroke-opacity:1"
       d="m 99.216493,138.10231 0.57508,0.51975 0.472577,-0.0604 0.52896,-0.39261 -0.33252,-0.78812 z"
       id="path2078-1"
       inkscape:transform-center-x="6.7931653"
       inkscape:transform-center-y="5.2728937" />
    <path
       style="fill:#a4978f;fill-opacity:1;stroke:none;stroke-width:0.00897694;stroke-linecap:round;stroke-linejoin:round;stroke-miterlimit:4;stroke-dasharray:none;stroke-opacity:1"
       d="m 117.86743,128.22288 c -0.0911,0.16558 -0.16953,0.31383 -0.17448,0.32945 -0.005,0.0156 -0.15822,0.006 -0.34059,-0.0207 l -0.3316,-0.0491 -0.0513,-0.14236 c -0.0282,-0.0783 -0.0716,-0.20799 -0.0963,-0.28821 -0.0437,-0.14149 -0.053,-0.14798 -0.31454,-0.21834 -0.14823,-0.0399 -0.25341,-0.0798 -0.23373,-0.0887 0.0197,-0.009 0.26948,-0.11542 0.55514,-0.2367 l 0.51937,-0.22051 0.30764,0.2956 c 0.1692,0.16259 0.31175,0.30529 0.31676,0.31712 0.005,0.0119 -0.0654,0.157 -0.15637,0.32258 z"
       id="path2088-4"
       inkscape:transform-center-x="-2.9083208"
       inkscape:transform-center-y="4.6876402" />
    <path
       style="fill:#bbaba3;fill-opacity:1;stroke:none;stroke-width:0.00897694;stroke-linecap:round;stroke-linejoin:round;stroke-miterlimit:4;stroke-dasharray:none;stroke-opacity:1"
       d="m 106.61052,130.35523 c -0.0911,0.16558 -0.16954,0.31383 -0.17448,0.32945 -0.005,0.0156 -0.15822,0.006 -0.34059,-0.0207 l -0.33161,-0.0491 -0.0513,-0.14236 c -0.0282,-0.0783 -0.0716,-0.20799 -0.0963,-0.28821 -0.0437,-0.1415 -0.053,-0.14798 -0.31454,-0.21834 -0.14823,-0.0399 -0.25341,-0.0798 -0.23374,-0.0887 0.0197,-0.009 0.26949,-0.11542 0.55514,-0.2367 l 0.51938,-0.22051 0.30764,0.2956 c 0.1692,0.16259 0.31175,0.30528 0.31676,0.31712 0.005,0.0119 -0.0654,0.15699 -0.15638,0.32258 z"
       id="path2088-1-9"
       inkscape:transform-center-x="-7.0696669"
       inkscape:transform-center-y="-6.0133496" />
    <path
       id="path841"
       style="fill:none;stroke:#969447;stroke-width:0.217;stroke-linecap:butt;stroke-linejoin:miter;stroke-miterlimit:4;stroke-dasharray:none;stroke-opacity:1"
       d="m 103.93723,139.32549 c 0,0 -1.13384,1.00792 -1.37138,3.59748 m 1.08972,-2.6459 c 0,0 -0.3743,1.71363 -1.08972,2.6459 m -0.0835,-2.45554 c 0,0 -0.16704,1.63703 0.0835,2.45554 m -1.1526,-2.53906 c 0.5826,0.43656 0.40091,1.25282 1.1526,2.53906"
       sodipodi:nodetypes="cccccccc" />
  </g>
</svg>
