<?xml version="1.0" encoding="UTF-8" standalone="no"?>
<svg
   xmlns:dc="http://purl.org/dc/elements/1.1/"
   xmlns:cc="http://creativecommons.org/ns#"
   xmlns:rdf="http://www.w3.org/1999/02/22-rdf-syntax-ns#"
   xmlns:svg="http://www.w3.org/2000/svg"
   xmlns="http://www.w3.org/2000/svg"
   xmlns:sodipodi="http://sodipodi.sourceforge.net/DTD/sodipodi-0.dtd"
   xmlns:inkscape="http://www.inkscape.org/namespaces/inkscape"
   width="21.84329mm"
   height="21.84329mm"
   viewBox="0 0 21.84329 21.84329"
   version="1.1"
   id="svg2126"
   inkscape:version="1.0.1 (3bc2e813f5, 2020-09-07)"
   sodipodi:docname="vcanyon.svg">
  <defs
     id="defs2120" />
  <sodipodi:namedview
     id="base"
     pagecolor="#ffffff"
     bordercolor="#666666"
     borderopacity="1.0"
     inkscape:pageopacity="0.0"
     inkscape:pageshadow="2"
     inkscape:zoom="5.6"
     inkscape:cx="29.373604"
     inkscape:cy="47.906457"
     inkscape:document-units="mm"
     inkscape:current-layer="layer1"
     inkscape:document-rotation="0"
     showgrid="false"
     inkscape:window-width="1507"
     inkscape:window-height="820"
     inkscape:window-x="395"
     inkscape:window-y="60"
     inkscape:window-maximized="0" />
  <metadata
     id="metadata2123">
    <rdf:RDF>
      <cc:Work
         rdf:about="">
        <dc:format>image/svg+xml</dc:format>
        <dc:type
           rdf:resource="http://purl.org/dc/dcmitype/StillImage" />
        <dc:title />
      </cc:Work>
    </rdf:RDF>
  </metadata>
  <g
     inkscape:label="Слой 1"
     inkscape:groupmode="layer"
     id="layer1"
     transform="translate(-97.179544,-120.61407)">
    <path
       style="fill:#534c48;fill-opacity:1;stroke:#000000;stroke-width:0.0179539;stroke-linecap:round;stroke-linejoin:round;stroke-miterlimit:4;stroke-dasharray:none;stroke-opacity:1"
       d="m 98.35768,142.0086 c -0.24593,-0.0717 -0.71652,-0.15418 -1.04576,-0.18332 l -0.59863,-0.053 0.0502,-0.74932 c 0.0436,-0.6506 0.03,-0.81083 -0.10295,-1.21613 -0.0842,-0.25674 -0.18477,-0.61479 -0.22343,-0.79567 -0.10598,-0.49584 0.0161,-1.6889 0.24061,-2.35087 0.31734,-0.93581 0.4446,-1.87573 0.34851,-2.57402 -0.0449,-0.32602 -0.0987,-0.82822 -0.11971,-1.116 -0.0283,-0.38758 -0.13292,-0.77108 -0.40366,-1.47909 l -0.36551,-0.95585 v -1.22107 -1.22108 l 0.3381,-0.99045 0.3381,-0.99045 -0.0916,-1.23711 c -0.0722,-0.9757 -0.15626,-1.50846 -0.39771,-2.52131 -0.16837,-0.70631 -0.28078,-1.29468 -0.24979,-1.30748 0.1163,-0.048 2.00057,0.2164 2.02432,0.28409 0.14719,0.41943 0.83341,0.38372 1.91297,-0.0995 0.42264,-0.1892 0.80084,-0.34378 0.84043,-0.34351 0.0755,5.1e-4 0.67803,1.03828 0.83485,1.43801 0.1378,0.35125 -0.0749,1.86407 -0.38871,2.76478 l -0.24364,0.69927 0.30082,0.17629 c 0.16545,0.097 0.41017,0.28912 0.54384,0.42703 l 0.24303,0.25075 -0.0919,0.54668 c -0.0683,0.40666 -0.0731,0.73171 -0.0186,1.26907 l 0.0733,0.72239 -0.32624,0.93455 -0.32624,0.93454 0.1451,0.72757 0.14509,0.72758 -0.17905,0.6034 c -0.10329,0.34809 -0.1949,0.88172 -0.21651,1.26115 -0.034,0.59753 -0.0229,0.67613 0.1221,0.8587 0.0878,0.11054 0.20814,0.20098 0.26751,0.20098 0.20485,0 0.51101,0.2089 0.60784,0.41474 0.0892,0.18958 0.31284,2.84297 0.2494,2.95892 -0.0146,0.0266 -0.15033,0.0694 -0.30167,0.0949 -0.15134,0.0256 -0.31417,0.0706 -0.36183,0.10005 -0.0477,0.0295 -0.16966,0.47797 -0.27109,0.99669 -0.17274,0.88341 -0.20187,0.96117 -0.45995,1.22798 -0.59299,0.61304 -0.74598,0.69563 -1.44966,0.78262 -0.3591,0.0444 -0.71868,0.0924 -0.79907,0.10676 -0.0804,0.0143 -0.34738,-0.0326 -0.59331,-0.10428 z"
       id="path2068" />
    <path
       style="fill:#aea099;fill-opacity:1;stroke:#000000;stroke-width:0.0196314;stroke-linecap:round;stroke-linejoin:round;stroke-miterlimit:4;stroke-dasharray:none;stroke-opacity:1"
       d="m 98.731719,138.13025 c -0.0804,-0.0434 -0.277722,-0.0817 -0.438509,-0.0851 l -0.292343,-0.006 -0.0113,-0.67713 c -0.006,-0.37242 -0.0346,-1.0757 -0.063,-1.56284 -0.0423,-0.72486 -0.0273,-0.9946 0.0826,-1.48533 0.204178,-0.91206 0.168297,-2.51257 -0.078,-3.47779 -0.24613,-0.96472 -0.259051,-2.23188 -0.0326,-3.196 0.132116,-0.56244 0.146716,-0.78711 0.104694,-1.61184 -0.01794,-1.08904 -0.414668,-1.76875 0.69165,-2.3621 0.176728,0.1912 0.330364,0.16404 0.813505,-0.14381 0.23748,-0.15132 0.444179,-0.25945 0.45933,-0.24027 0.0152,0.0191 0.114044,0.28169 0.219744,0.58339 0.18331,0.52321 0.18869,0.58231 0.11627,1.279 -0.0418,0.40175 -0.12236,0.91491 -0.17912,1.14036 l -0.10319,0.40992 0.23155,0.24733 0.23155,0.24735 0.01,0.99072 c 0.007,0.75015 -0.0258,1.14204 -0.13607,1.61385 -0.11987,0.51289 -0.13322,0.70923 -0.0755,1.10992 0.0508,0.35282 0.0436,0.63823 -0.0263,1.03696 -0.053,0.30259 -0.0971,0.72709 -0.0979,0.94333 -10e-4,0.3439 0.031,0.42604 0.25774,0.6553 l 0.25926,0.26212 0.0437,1.05765 0.0437,1.05766 -0.18379,0.0551 c -0.15811,0.0475 -0.19073,0.11943 -0.23344,0.51506 -0.12661,1.17276 -0.393675,1.59214 -1.065714,1.67348 -0.221079,0.0267 -0.46774,0.0131 -0.548133,-0.0303 z"
       id="path2074"
       sodipodi:nodetypes="cccccccccccccccccccscccccccccccc" />
    <path
       style="fill:#aaa29f;fill-opacity:1;stroke:none;stroke-width:0.0649999;stroke-linecap:butt;stroke-linejoin:miter;stroke-miterlimit:4;stroke-dasharray:none;stroke-opacity:1"
       d="m 102.42372,124.80565 0.57508,0.51975 0.47258,-0.0604 0.52896,-0.39261 -0.33252,-0.78812 z"
       id="path2078-1"
       inkscape:transform-center-x="6.7931688"
       inkscape:transform-center-y="5.2728937" />
    <path
       style="fill:#a99b95;fill-opacity:1;stroke:none;stroke-width:0.00755589;stroke-linecap:round;stroke-linejoin:round;stroke-miterlimit:4;stroke-dasharray:none;stroke-opacity:1"
       d="m 112.52646,137.48357 c -0.29826,-0.15153 -0.68718,-0.34414 -0.74304,-0.36801 -0.0579,-0.0247 -0.059,0.004 -0.0243,0.69015 l 0.0362,0.71598 0.26125,0.008 c 0.14368,0.004 0.26845,2.5e-4 0.27723,-0.009 0.0136,-0.0138 0.24363,-0.70977 0.29982,-0.90736 0.0153,-0.0539 -0.004,-0.0773 -0.10714,-0.1297 z"
       id="path2092-2"
       inkscape:transform-center-x="-9.3981461"
       inkscape:transform-center-y="5.0251981" />
    <path
       style="fill:#534c48;fill-opacity:1;stroke:#000000;stroke-width:0.0156734;stroke-linecap:round;stroke-linejoin:round;stroke-miterlimit:4;stroke-dasharray:none;stroke-opacity:1"
       d="m 114.34854,141.15663 c 0.0215,-0.92903 0.0154,-0.99484 -0.14885,-1.6215 -0.0942,-0.35925 -0.17122,-0.76179 -0.17122,-0.89455 0,-0.13276 0.14252,-0.72677 0.3167,-1.32003 l 0.31671,-1.07865 0.0202,-1.20585 0.0202,-1.20584 -0.37304,-0.68728 c -0.50789,-0.93572 -1.0508,-2.123 -1.18208,-2.58504 -0.0862,-0.30353 -0.099,-0.45663 -0.0625,-0.74716 0.0835,-0.66338 0.0581,-1.73985 -0.0588,-2.48477 -0.0613,-0.3907 -0.11139,-0.75204 -0.11139,-0.80298 0,-0.0509 0.22725,-0.47814 0.50499,-0.94934 0.27775,-0.4712 0.52705,-0.92743 0.554,-1.01384 0.0269,-0.0864 0.10112,-0.61752 0.16483,-1.18025 0.0637,-0.56272 0.12526,-1.08026 0.13679,-1.15008 0.0142,-0.0862 -0.12034,-0.28341 -0.41951,-0.61469 -0.24226,-0.26826 -0.43046,-0.50089 -0.41821,-0.51696 0.0122,-0.0161 0.44471,0.008 0.96105,0.0526 l 0.93879,0.0818 c 1.85898,-1.20076 1.03602,0.73077 2.50626,-0.61377 l 0.47341,0.33584 0.47341,0.33584 -0.0172,0.35943 c -0.0237,0.49482 0.28807,2.81075 0.50085,3.72035 l 0.17496,0.74791 -0.31349,1.01542 c -0.35403,1.14674 -0.50648,1.978 -0.47097,2.56792 0.0134,0.22343 0.13737,0.80769 0.27899,1.31547 0.14014,0.50244 0.28149,1.11084 0.31412,1.35201 0.11368,0.84008 0.2307,2.85782 0.22983,3.96257 -8.1e-4,1.05228 -0.01,1.14485 -0.16797,1.71313 -0.14995,0.53913 -0.16709,0.68821 -0.16709,1.45354 0,0.7898 0.0103,0.87273 0.13965,1.12281 0.0768,0.14852 0.16186,0.39976 0.18901,0.55831 l 0.0494,0.28829 h -0.61188 c -0.54958,0 -0.6779,-0.0273 -1.26039,-0.26801 l -0.64851,-0.26801 -0.78048,0.20045 c -1.33979,0.34411 -1.26126,0.30824 -1.4645,0.66893 -0.12392,0.21993 -0.22394,0.32437 -0.31063,0.32437 h -0.12786 z"
       id="path2070"
       sodipodi:nodetypes="sssscccssssssssssssccccsscssssccscscsscssscs" />
    <path
       style="fill:#9b928e;fill-opacity:1;stroke:#000000;stroke-width:0.0156734;stroke-linecap:round;stroke-linejoin:round;stroke-miterlimit:4;stroke-dasharray:none;stroke-opacity:1"
       d="m 115.59095,138.06893 c -0.003,-0.44214 -0.0317,-0.95158 -0.0634,-1.13208 -0.0865,-0.49265 -0.0723,-0.90889 0.0591,-1.73483 0.0949,-0.59641 0.11497,-0.93624 0.0994,-1.68087 -0.019,-0.90886 -0.0268,-0.95919 -0.29551,-1.91993 l -1.08252,-0.9866 -0.005,-1.02314 c -0.003,-0.56273 -0.0232,-1.28624 -0.0457,-1.6078 -0.0397,-0.56821 -0.0346,-0.60519 0.18093,-1.31546 0.19417,-0.63983 1.03315,-0.83286 1.06708,-1.55046 l 0.0387,-0.81964 -0.17305,-0.36903 c -0.0952,-0.20297 -0.17305,-0.37936 -0.17305,-0.39199 0,-0.0126 0.16918,0.006 0.37594,0.0423 l 1.34257,-0.30946 0.186,0.19638 c 0.13716,0.17245 0.15634,0.25037 0.1573,0.63946 0.002,0.53759 0.14563,2.38037 0.21705,2.772 0.0401,0.21984 0.0216,0.45525 -0.0832,1.05968 -0.20627,1.18966 -0.22454,1.79919 -0.0825,2.75026 0.19431,1.30083 1.09664,4.20346 0.97201,5.01438 -0.0928,0.60401 -0.10042,1.66582 -0.0143,1.99236 0.0411,0.15578 0.0748,0.36133 0.0748,0.45676 0,0.15052 -0.0266,0.17351 -0.20064,0.17351 -0.11533,0 -1.12216,-0.0848 -1.27755,-0.19941 l -0.27035,-0.19941 -0.39657,0.18044 c -0.43073,0.19599 -0.45578,0.22123 -0.54318,0.54725 -0.0482,0.18001 -0.0598,0.0754 -0.0645,-0.58465 z"
       id="path2072"
       sodipodi:nodetypes="ccscccccccccscccccccscssscsccc" />
    <path
       style="color:#000000;font-style:normal;font-variant:normal;font-weight:normal;font-stretch:normal;font-size:medium;line-height:normal;font-family:sans-serif;font-variant-ligatures:normal;font-variant-position:normal;font-variant-caps:normal;font-variant-numeric:normal;font-variant-alternates:normal;font-variant-east-asian:normal;font-feature-settings:normal;font-variation-settings:normal;text-indent:0;text-align:start;text-decoration:none;text-decoration-line:none;text-decoration-style:solid;text-decoration-color:#000000;letter-spacing:normal;word-spacing:normal;text-transform:none;writing-mode:lr-tb;direction:ltr;text-orientation:mixed;dominant-baseline:auto;baseline-shift:baseline;text-anchor:start;white-space:normal;shape-padding:0;shape-margin:0;inline-size:0;clip-rule:nonzero;display:inline;overflow:visible;visibility:visible;opacity:1;isolation:auto;mix-blend-mode:normal;color-interpolation:sRGB;color-interpolation-filters:linearRGB;solid-color:#000000;solid-opacity:1;vector-effect:none;fill:#b4a33e;fill-opacity:1;fill-rule:nonzero;stroke:#090803;stroke-width:0.0720167;stroke-linecap:butt;stroke-linejoin:miter;stroke-miterlimit:4;stroke-dasharray:none;stroke-dashoffset:0;stroke-opacity:1;color-rendering:auto;image-rendering:auto;shape-rendering:auto;text-rendering:auto;enable-background:accumulate;stop-color:#000000;stop-opacity:1"
       d="m 103.82785,136.72829 -0.1431,0.17358 c 0,0 0.41404,0.17394 0.94523,0.67291 0.4704,0.44184 0.98769,1.25916 1.38457,2.30165 -0.3249,-0.32763 -0.71684,-0.57192 -1.105,-0.73471 -0.80901,-0.33933 -1.58426,-0.38283 -1.58426,-0.38283 l -0.0233,0.19973 c 0,0 0.71352,0.0417 1.46446,0.35666 0.63142,0.26485 1.20158,0.79008 1.47442,1.58358 -0.31671,-0.32219 -0.62985,-0.68568 -0.98851,-0.79179 -0.52712,-0.15595 -0.98184,-0.14265 -0.98184,-0.14265 l 0.0133,0.2021 c 0,0 0.39283,-0.0128 0.86203,0.12602 0.46922,0.13881 1.00542,0.42143 1.29471,1.04146 l 0.1298,-0.0309 h 0.003 l 0.13646,0.0166 c 0,0 0.14177,-0.56312 0.38942,-1.10803 0.12382,-0.27246 0.27736,-0.53941 0.44265,-0.72284 0.0827,-0.0917 0.16801,-0.16216 0.24629,-0.2021 0.0783,-0.04 0.14035,-0.0518 0.20969,-0.0428 l 0.0499,-0.19735 c -0.15207,-0.0198 -0.30065,0.0138 -0.4227,0.0761 -0.12204,0.0623 -0.22478,0.15169 -0.31951,0.2568 -0.18946,0.21022 -0.34484,0.48921 -0.47261,0.77039 -0.0814,0.17913 -0.0691,0.19902 -0.12648,0.36142 -0.1299,-1.61158 0.35944,-2.85331 0.35946,-2.85331 l -0.25962,-0.0737 c 0,0 -0.36728,1.08454 -0.37941,2.47523 -0.4084,-1.24882 -1.03337,-2.09792 -1.57428,-2.60601 -0.55574,-0.522 -1.02513,-0.72522 -1.02513,-0.72522 z m 2.32981,3.38592 c 0.009,0.0289 0.0275,0.03 0.0366,0.0594 l 0.23298,-0.0357 c 0.001,0.19163 -0.0201,0.34721 0.003,0.55402 -0.0867,-0.19823 -0.14568,-0.41885 -0.27292,-0.57779 z"
       id="path3647" />
  </g>
</svg>
